<svg width="88" height="93" viewBox="0 0 88 93" fill="none" xmlns="http://www.w3.org/2000/svg">
<path fill-rule="evenodd" clip-rule="evenodd" d="M53.8409 93H34.2078L34.1097 92.9916L34.0264 92.9837L33.9857 92.98C33.8271 92.9644 33.6684 92.9491 33.5097 92.9468C32.3955 92.9293 31.2815 92.9154 30.1672 92.9014H30.1641C28.0815 92.8752 25.9982 92.8491 23.9168 92.801C19.5537 92.7001 15.1905 92.5713 10.8274 92.4422L10.06 92.4197C9.49059 92.4029 8.91704 92.355 8.35577 92.2667C4.1022 91.5994 0.709951 88.0424 0.595652 84.1483C0.576832 83.5129 0.556069 82.8775 0.535308 82.2423C0.499778 81.1551 0.464256 80.0684 0.43849 78.9808C0.418604 78.1508 0.398187 77.321 0.377776 76.4912C0.299728 73.3187 0.221689 70.1468 0.173153 66.9738C0.0935519 61.7508 0.0261967 56.5279 0.00782729 51.305C-0.0105423 46.0285 0.0017041 40.7522 0.0629359 35.4777C0.1272 30.107 0.232101 24.7365 0.337002 19.3659L0.401751 16.0325C0.441236 14.0034 0.503826 11.9756 0.56644 9.94688L0.601775 8.79704C0.611981 8.46714 0.64668 8.13355 0.711993 7.80919C1.22022 5.27145 2.6959 3.30869 5.08395 1.91172C6.33511 1.17822 7.71079 0.737754 9.20484 0.64192C10.1703 0.579259 11.1377 0.546086 12.1052 0.516598C12.6839 0.49908 13.2626 0.481089 13.8413 0.463096C16.063 0.394025 18.285 0.324943 20.5082 0.282542L21.4352 0.264577C26.1734 0.172669 30.91 0.0807947 35.6469 0.0392714C46.6521 -0.0584056 57.6534 0.0226847 68.6548 0.321244C71.8368 0.407863 75.0189 0.500012 78.2009 0.594002C78.5519 0.60506 78.907 0.621648 79.2521 0.676937C82.9381 1.27037 85.4547 3.1631 86.8467 6.29061C87.3141 7.34108 87.4081 8.45054 87.4365 9.56923C87.4741 11.0722 87.5142 12.5754 87.5546 14.0786C87.641 17.3194 87.7277 20.5622 87.7878 23.8023C87.8356 26.4186 87.8563 29.0347 87.8773 31.6508C87.8892 33.1574 87.9011 34.6639 87.9182 36.1705C87.9255 36.8239 87.9482 37.4763 87.9713 38.1291C87.9811 38.4153 87.9912 38.7018 88 38.9884V54.0232C87.9928 54.1713 87.9839 54.3189 87.9752 54.4666C87.9565 54.7802 87.9374 55.095 87.9348 55.4091C87.9249 56.5458 87.92 57.6823 87.9148 58.8185C87.9061 60.8236 87.897 62.8284 87.8631 64.8342C87.7976 68.7174 87.7055 72.5992 87.6133 76.4819L87.6131 76.4861L87.5551 78.9475C87.5178 80.549 87.464 82.1507 87.4099 83.7521L87.3938 84.2332C87.3488 85.6135 86.9284 86.9055 86.1385 88.0794C84.4587 90.5804 82.0319 92.0712 78.7784 92.3699C77.9483 92.4464 77.1118 92.466 76.2773 92.4853L76.0107 92.4915L74.7494 92.5238C70.5654 92.631 66.3812 92.7384 62.1969 92.8305C60.5321 92.8675 58.8671 92.8889 57.2028 92.9105C56.286 92.9223 55.3695 92.9342 54.453 92.9486C54.3202 92.9509 54.1885 92.9649 54.0562 92.9791C53.9853 92.9867 53.912 92.9944 53.8409 93ZM42.0905 24.1231C42.0615 24.0629 42.0348 24.0083 42.0097 23.9569C41.9605 23.8562 41.9173 23.7679 41.8782 23.6788C40.6985 21.0232 39.5187 18.3675 38.339 15.71L32.718 3.0562C32.5981 2.78466 32.375 2.65137 32.0484 2.65628C31.489 2.66446 30.9297 2.67137 30.3706 2.67825C29.1699 2.69306 27.9674 2.70787 26.7662 2.73553C21.7798 2.85348 16.7935 2.9788 11.8072 3.11149L11.5095 3.11881C10.6702 3.13901 9.82549 3.15938 8.9987 3.26814C6.02078 3.657 3.5511 6.20214 3.45722 8.91866L3.42792 9.75249C3.38395 10.9982 3.33992 12.2449 3.30821 13.4892C3.28577 14.3866 3.26199 15.284 3.23818 16.1814C3.16464 18.9552 3.09111 21.729 3.05717 24.5028C2.96736 31.9133 2.88573 39.3239 2.8592 46.7344C2.82653 55.8295 2.95307 64.9225 3.18167 74.0158L3.23468 76.1703C3.28704 78.3149 3.33943 80.4599 3.40212 82.604L3.40926 82.8628C3.42759 83.5452 3.44607 84.2332 3.56743 84.9021C4.05116 87.5688 6.82906 89.7325 9.81309 89.8266C10.3966 89.845 10.9802 89.8661 11.5639 89.8873L11.5677 89.8875C12.3751 89.9168 13.1827 89.9459 13.9911 89.9684C14.7145 89.9882 15.4378 90.0089 16.1612 90.0294L16.1645 90.0296H16.1681L16.172 90.0298H16.1759L16.1798 90.0301H16.1837L16.1878 90.0303H16.1919H16.1959H16.1987C18.4975 90.0959 20.798 90.1617 23.0983 90.2007L23.8518 90.2135C28.3686 90.2905 32.8854 90.3674 37.402 90.3849C43.5213 90.4088 49.6382 90.4016 55.7572 90.3463C59.3889 90.3139 63.019 90.2302 66.6499 90.1468C67.7861 90.1205 68.9226 90.0945 70.0589 90.0698C71.7307 90.0331 73.4009 89.9824 75.0712 89.9319L75.0745 89.9317H75.08C75.5909 89.9161 76.1018 89.9006 76.6128 89.8854C76.7745 89.8806 76.9363 89.8768 77.0983 89.8734C77.5968 89.862 78.0961 89.8508 78.5907 89.8008C81.9053 89.4579 84.4649 86.9257 84.5568 83.907L84.5974 82.5638V82.561C84.6787 79.8954 84.7597 77.231 84.8138 74.5649L84.8242 74.0618C84.9248 69.1798 85.0255 64.2978 85.0711 59.4139C85.1241 53.793 85.1363 48.1719 85.12 42.5508C85.1037 37.2486 85.0548 31.9446 84.973 26.6425C84.9168 22.9568 84.8242 19.2722 84.7315 15.5879V15.5847L84.7312 15.5815V15.5784V15.5752L84.731 15.572V15.5688V15.5658L84.7307 15.5618V15.5578L84.7305 15.5539V15.5499L84.7302 15.546V15.542V15.5381L84.7299 15.5342V15.5302C84.7025 14.4365 84.6751 13.3427 84.6487 12.2489C84.643 12.0183 84.638 11.7876 84.6334 11.5568V11.5504C84.6127 10.5368 84.5922 9.52204 84.4892 8.51506C84.1996 5.65293 81.3359 3.27551 78.158 3.17968C77.2715 3.15313 76.3855 3.12302 75.4995 3.09293C74.172 3.04783 72.8444 3.00275 71.5164 2.96959L70.574 2.9463C67.0751 2.85976 63.5747 2.7732 60.0763 2.72077C55.8512 2.65811 51.6263 2.6231 47.3991 2.60836C44.5201 2.59769 41.6409 2.60731 38.7619 2.61691C37.6653 2.62059 36.5681 2.62424 35.4711 2.6268C35.3684 2.6268 35.2654 2.63535 35.1437 2.64546C35.0868 2.65021 35.026 2.65528 34.9589 2.65997L36.2647 5.59925L36.2715 5.61417L36.2919 5.66011C38.8598 11.4402 41.4123 17.1858 43.9722 22.9528C43.3396 23.3454 42.7293 23.7251 42.0884 24.125L42.0905 24.1231ZM37.2431 38.336L38.245 39.2521L38.2766 39.2809C40.7125 41.5078 43.1338 43.7214 45.5912 45.9659C46.3319 45.4584 47.0652 44.955 47.8086 44.4447L49.2896 43.4282C50.1523 45.3001 51.0051 47.1512 51.8569 49.0005L53.2675 52.0625L53.2104 52.1083L53.1692 52.1418C53.0954 52.2018 53.0284 52.2564 52.9551 52.3057L50.9119 53.7047C48.8221 55.1355 46.7331 56.566 44.6379 57.9894C42.809 59.2316 40.4865 59.088 38.8699 57.6337C33.8775 53.1481 28.8891 48.6585 23.9069 44.1618C21.976 42.4201 22.1516 39.7552 24.3049 38.2293C28.2363 35.4426 32.1711 32.6593 36.1058 29.8763L36.1133 29.871C38.8173 27.9585 41.521 26.0459 44.2235 24.1324C44.5338 23.9132 44.889 23.7988 45.2604 23.7177C48.0648 23.1114 49.9038 25.1036 50.1365 26.7162C50.3366 28.1152 49.8344 29.2688 48.6016 30.1535C44.9625 32.7686 41.3254 35.3856 37.688 38.0026C37.5729 38.0861 37.4592 38.1724 37.3174 38.2798L37.2431 38.336ZM53.1917 40.7273C54.4877 43.6354 55.7735 46.5177 57.092 49.472L57.0941 49.4739L57.2587 49.3653C57.362 49.2974 57.4479 49.2409 57.5331 49.1828L58.565 48.4783C59.9055 47.5637 61.2478 46.6476 62.5826 45.7253C62.8541 45.5372 63.1256 45.4526 63.4662 45.4526C65.8084 45.4582 68.1516 45.4575 70.4953 45.4568L72.839 45.4563C73.088 45.4563 73.337 45.4563 73.586 45.4414C76.3312 45.2812 78.2048 42.8686 77.4436 40.4801C76.9127 38.8161 75.2554 37.666 73.3287 37.655C71.9184 37.6455 70.507 37.6499 69.0961 37.6546H69.0927H69.0901H69.0867H69.0836H69.081C68.5756 37.656 68.0701 37.6576 67.5648 37.6588C66.6457 37.6604 65.7266 37.6639 64.8072 37.6671C62.9698 37.6736 61.13 37.6802 59.2923 37.6753C58.1147 37.6734 57.0799 37.9775 56.1595 38.6483C55.5931 39.0596 55.0131 39.4557 54.4328 39.8522L54.4305 39.854L54.4281 39.8556C54.1445 40.0493 53.8595 40.2442 53.5774 40.4397C53.4933 40.4983 53.4117 40.5604 53.3235 40.6275C53.2815 40.6592 53.2375 40.6929 53.1917 40.7273ZM12.0215 30.6429C12.0215 26.6971 15.5525 23.5033 19.9081 23.5087C24.2678 23.5142 27.7865 26.7099 27.7805 30.6557C27.7743 34.5942 24.2352 37.7769 19.8714 37.7697C15.5362 37.7604 12.0235 34.5703 12.0215 30.6429ZM64.3706 50.8373C64.4019 50.8963 64.434 50.9575 64.47 51.02C64.4371 51.0735 64.4068 51.126 64.3773 51.1772C64.3095 51.2951 64.2458 51.406 64.1638 51.5029C64.1017 51.5766 64.0116 51.6326 63.9223 51.6882C63.8887 51.7091 63.855 51.7301 63.8232 51.7517L52.5503 59.4481L52.4887 59.4906C52.416 59.5413 52.343 59.5918 52.2667 59.6378C51.8869 59.8589 51.5072 59.8092 51.2093 59.4978C51.1682 59.4539 51.1301 59.4083 51.0923 59.3628L51.0481 59.3098C50.9062 59.1403 50.766 58.9694 50.6259 58.7985C50.2938 58.3942 49.962 57.9901 49.6092 57.6014C49.111 57.0503 49.1682 56.6688 49.8357 56.2192C51.9232 54.8111 54 53.3908 56.0769 51.9702L56.0792 51.9688L56.0854 51.9644C56.8956 51.4106 57.7057 50.8566 58.5164 50.3032L59.2437 49.8064L59.2496 49.8022L59.252 49.8006C59.919 49.3449 60.587 48.8885 61.2553 48.4344C61.8167 48.0529 62.1617 48.0991 62.5904 48.6076L62.7143 48.755C63.1976 49.3286 63.68 49.9015 64.1537 50.482C64.2389 50.5878 64.3025 50.7085 64.3706 50.8373ZM18.0062 79.4005L17.3657 79.3997C16.8552 79.399 16.3673 79.3984 15.8794 79.4023C15.7139 79.4023 15.6378 79.3102 15.5598 79.2158C15.5436 79.1961 15.5272 79.1763 15.51 79.1572C14.8262 78.4053 13.9588 78.0071 12.8689 78.0257C11.285 78.0496 9.93585 79.0798 9.6399 80.4897C9.51541 81.0868 9.5358 81.6782 9.72563 82.2588C10.4849 84.594 13.4465 84.9883 15.0977 83.8254C15.5733 83.4901 15.9019 83.0642 16.0713 82.4708C16.0109 82.4659 15.9537 82.4601 15.8987 82.4546C15.7902 82.4434 15.6897 82.4334 15.5896 82.4322C14.9653 82.4297 14.3411 82.4306 13.7169 82.4313H13.7118C13.3988 82.4318 13.0859 82.4322 12.7729 82.4322H12.2545V80.9707C12.5948 80.9312 12.942 80.9366 13.2899 80.9419C13.4469 80.9442 13.604 80.9466 13.7608 80.9449C14.1121 80.9401 14.4626 80.9417 14.8133 80.9433H14.8159C14.9918 80.944 15.1684 80.9449 15.3447 80.9449H16.8857C17.2194 80.9449 17.5523 80.9463 17.8917 80.948L18.4369 80.9503C18.5001 81.8424 18.3491 82.644 17.9429 83.3959C17.1877 84.7912 15.9182 85.6186 14.2711 85.9411C12.0688 86.3742 10.142 85.8767 8.70102 84.2732C7.39269 82.8172 7.15389 81.1365 7.90499 79.406C8.65407 77.6809 10.1461 76.7244 12.1565 76.4591C14.0915 76.2029 15.7447 76.7521 17.0939 78.0294C17.4898 78.4035 17.8041 78.8311 18.0083 79.4042L18.0062 79.4005ZM40.7627 67.8797C40.7536 68.0096 40.7451 68.131 40.7373 68.2521L40.7352 68.2558L40.5986 68.3423C40.5864 68.3198 40.5758 68.2961 40.5652 68.2724C40.5422 68.221 40.5194 68.1696 40.4803 68.1305C40.0965 67.7416 39.6106 67.5002 39.0516 67.397C37.7085 67.1482 36.5166 67.4374 35.5245 68.2982C34.7182 68.995 34.3898 69.8831 34.3489 70.8747C34.257 73.123 36.1143 74.78 38.5637 74.6252C39.3148 74.5773 39.9456 74.299 40.4456 73.7884C40.5064 73.7272 40.5686 73.6675 40.6415 73.5975L40.6884 73.5524C40.7011 73.5826 40.7132 73.6059 40.7231 73.6254C40.7389 73.6559 40.7495 73.6766 40.7495 73.6982C40.7557 73.8584 40.7598 74.0169 40.7495 74.1755C40.6985 75.0471 40.1373 75.7198 39.2392 75.9925C38.3227 76.2689 37.4002 76.0369 36.7878 75.355C36.6613 75.2129 36.5329 75.1597 36.3429 75.1613C36.0652 75.1645 35.788 75.1648 35.511 75.165C35.2895 75.165 35.0681 75.1653 34.8469 75.1669C34.7922 75.1669 34.7376 75.1785 34.6703 75.1927C34.6369 75.1999 34.6002 75.2076 34.559 75.2148C34.5878 75.2815 34.6134 75.3454 34.638 75.407C34.6866 75.5296 34.7319 75.6433 34.7917 75.7511C35.1877 76.457 35.804 76.9564 36.6227 77.2182C38.082 77.6844 39.5086 77.5904 40.8577 76.8809C41.7742 76.398 42.3172 75.6681 42.4785 74.7209C42.5315 74.4094 42.5683 74.0906 42.5683 73.7737C42.5742 72.3127 42.5735 70.8529 42.5727 69.3923L42.5722 67.9315C42.5722 67.8476 42.5634 67.7636 42.5538 67.6732C42.5489 67.6267 42.5437 67.5786 42.5396 67.5279C41.9292 67.5039 41.3681 67.4856 40.7862 67.5353L40.7627 67.8797ZM40.7741 70.9798C40.7924 72.1923 39.8045 73.1158 38.4819 73.1195C37.1492 73.1248 36.147 72.2016 36.1449 70.9649C36.1428 69.7671 37.1512 68.829 38.4555 68.818C39.7843 68.8069 40.7557 69.7118 40.7741 70.9798ZM29.7927 79.0257L29.8478 79.7629L29.9599 79.6632C30.0481 79.5846 30.1175 79.523 30.1866 79.4607C30.9929 78.7381 32.3217 78.5555 33.3257 79.0312C33.6707 79.1933 33.9523 79.4218 34.1687 79.7129C34.2262 79.7915 34.2847 79.8682 34.3551 79.9601L34.3569 79.9624L34.4423 80.0742L34.5487 79.9482L34.5502 79.9464C34.623 79.8601 34.6877 79.7829 34.7544 79.7076C35.922 78.4009 38.2857 78.4616 39.3326 79.8217C39.6652 80.253 39.798 80.7434 39.806 81.2481C39.8252 82.3255 39.8252 83.4036 39.8255 84.4815C39.8255 84.9007 39.8255 85.3203 39.8265 85.7395C39.8265 85.7614 39.8187 85.7835 39.8066 85.8165C39.7983 85.839 39.7884 85.8669 39.7776 85.9034C39.6458 85.9044 39.5112 85.9058 39.3751 85.9069L39.3697 85.9072C39.2232 85.9086 39.0748 85.9099 38.9265 85.9109H38.0548C38.0509 85.8486 38.0463 85.79 38.0419 85.7339C38.0325 85.6196 38.0243 85.5159 38.0243 85.4133C38.0222 84.3001 38.0222 83.1869 38.0222 82.074C38.0222 81.7126 37.9815 81.3625 37.812 81.027C37.5568 80.5202 37.1119 80.2953 36.514 80.3009C35.9179 80.3065 35.422 80.489 35.1279 80.9921C34.9465 81.3034 34.8893 81.6427 34.8914 81.9909V85.4096V85.8758H33.1075C33.1047 85.8328 33.1008 85.7883 33.0969 85.743C33.0889 85.653 33.0809 85.5598 33.0809 85.4668C33.0803 85.1148 33.0806 84.763 33.0809 84.411C33.0816 83.637 33.0824 82.8626 33.0726 82.0886C33.0687 81.7994 33.0361 81.5043 32.9543 81.226C32.791 80.675 32.3502 80.3709 31.7135 80.3139C31.0501 80.2549 30.4969 80.5092 30.2071 81.0105C30.0132 81.3476 29.9477 81.7108 29.9477 82.0867C29.9477 83.1786 29.9459 84.2685 29.9438 85.3603V85.3633V85.3661V85.3694V85.3724V85.3754V85.3787V85.3857V85.8813H28.168V79.0257H29.7927ZM46.5235 33.0892L46.1647 33.3578L54.4698 51.7947C54.6502 51.6722 54.8161 51.5606 54.9748 51.4534C55.1071 51.3643 55.2347 51.2783 55.3617 51.1921C55.5497 51.0637 55.7376 50.9347 55.9301 50.8024L56.2884 50.5564L52.8767 42.9332C51.2495 39.2967 49.6204 35.6565 47.9815 31.9958C47.4817 32.372 47.009 32.7256 46.5276 33.0862L46.5235 33.0892ZM78.1663 68.2451V65.1269H79.8971C79.9949 65.3996 80.0358 73.6452 79.9418 74.3582C79.6418 74.4633 78.7704 74.4782 78.2742 74.3803L78.2664 74.2764C78.2597 74.1885 78.2527 74.0969 78.2499 74.0062C78.2473 73.9235 78.2478 73.8405 78.2488 73.7389C78.2493 73.68 78.2499 73.6147 78.2499 73.5401C78.2022 73.5775 78.1619 73.6073 78.1267 73.6333C78.0663 73.6777 78.0218 73.7105 77.9846 73.75C77.4721 74.2994 76.8069 74.561 76.0291 74.6238C73.3103 74.8449 71.7449 72.9963 71.7245 71.0391C71.7185 70.3923 71.843 69.7748 72.1572 69.1926C72.9798 67.6702 74.833 67.0085 76.5659 67.4158C77.162 67.556 77.6558 67.8583 78.064 68.2803L78.1663 68.2451ZM78.2763 70.9856C78.2763 69.7436 77.2578 68.8092 75.9025 68.8092C74.5431 68.8092 73.543 69.7122 73.5371 70.9433C73.5309 72.2039 74.5268 73.1216 75.8984 73.12C77.2415 73.1162 78.2742 72.1893 78.2763 70.9856ZM10.257 71.2114V74.348C9.91815 74.4585 8.85681 74.4826 8.21388 74.3996C8.15942 73.8765 8.16706 73.3483 8.17469 72.8184C8.17821 72.5733 8.18176 72.3283 8.17917 72.083C8.1721 71.551 8.17384 71.0189 8.1756 70.4869C8.17637 70.2505 8.17712 70.014 8.17712 69.7775C8.17712 69.5227 8.17645 69.2651 8.17578 69.0061C8.17443 68.4835 8.17304 67.9536 8.17712 67.4314C8.17979 67.1833 8.17707 66.9352 8.17433 66.6867C8.16866 66.1689 8.16297 65.6488 8.2057 65.1222C8.25705 65.1183 8.30426 65.1139 8.34878 65.1097C8.433 65.1018 8.50871 65.0946 8.58331 65.0946C8.83549 65.0946 9.08753 65.0941 9.33953 65.0936C10.1577 65.0925 10.9772 65.0911 11.7959 65.1036C12.2041 65.1092 12.6164 65.1499 13.0185 65.2162C14.3371 65.4317 15.0902 66.191 15.4209 67.3263C15.5801 67.8755 15.5596 68.4302 15.4066 68.9794C15.0351 70.3009 13.9758 71.0842 12.3919 71.1856C12.0316 71.2081 11.6704 71.2084 11.3088 71.2088C11.1419 71.2088 10.975 71.209 10.8081 71.2114C10.7064 71.2125 10.6047 71.2121 10.4834 71.2118L10.257 71.2114ZM10.8066 69.5888C10.6292 69.585 10.4507 69.5813 10.2713 69.582V66.8158C10.2818 66.8069 10.2911 66.7976 10.2996 66.789C10.3174 66.7711 10.3316 66.7569 10.3468 66.7569L10.4392 66.7516C11.0801 66.7141 11.7222 66.6767 12.3531 66.812C13.4206 67.0406 13.8839 68.0175 13.3533 68.8892C13.2083 69.1286 12.9961 69.3056 12.7124 69.4032C12.0919 69.6162 11.4563 69.6027 10.8066 69.5888ZM26.7597 74.4085H25.0024L24.9575 73.5368C24.9194 73.5705 24.8872 73.5984 24.8592 73.6226C24.8051 73.6691 24.7658 73.7033 24.7309 73.7396C24.2207 74.2887 23.5512 74.5596 22.7776 74.6224C19.8773 74.8618 18.2853 72.7628 18.5016 70.5992C18.5425 70.1956 18.6547 69.7845 18.8241 69.4104C19.5385 67.8311 21.451 66.9759 23.2594 67.3979C23.8125 67.527 24.288 67.7776 24.6738 68.1628C24.7162 68.2056 24.7594 68.247 24.8207 68.3058L24.9514 68.4318L25.0004 67.61C25.3473 67.4828 26.3047 67.4698 26.7618 67.5879V74.4103L26.7597 74.4085ZM22.6348 73.1276C23.99 73.1276 24.984 72.2025 24.9881 70.9382C24.9922 69.7273 23.9676 68.8078 22.6164 68.8097C21.2938 68.8134 20.2835 69.7515 20.2835 70.9807C20.2835 72.2062 21.2917 73.1276 22.6348 73.1276ZM25.463 79.0215L25.412 79.8029C25.3907 79.8057 25.3745 79.8085 25.3622 79.8106C25.3416 79.8141 25.3321 79.8157 25.3283 79.8122C25.2548 79.7478 25.1834 79.6832 25.114 79.615C24.7262 79.2335 24.2486 78.9773 23.6914 78.8669C22.3525 78.6032 21.1503 78.8759 20.1542 79.7329C19.1603 80.5899 18.8459 81.6792 18.9745 82.89C19.1725 84.7328 20.5706 85.9953 22.6076 86.1152C23.6159 86.1741 24.5262 85.929 25.212 85.1992C25.2404 85.1683 25.2758 85.142 25.3277 85.1034C25.3502 85.0867 25.3764 85.0671 25.4059 85.0444L25.4691 85.8793H27.2142V79.0215H25.463ZM25.4528 82.4034C25.4569 83.6622 24.4629 84.5947 23.1097 84.5984C21.7646 84.6021 20.7482 83.6898 20.74 82.4697C20.7339 81.2535 21.7503 80.297 23.0668 80.2839C24.4017 80.2693 25.4487 81.2 25.4528 82.4034ZM48.4841 82.9828H42.4119C42.4119 83.0253 42.4099 83.0651 42.4075 83.1025C42.4034 83.1788 42.3998 83.246 42.4161 83.309C42.6141 84.0941 43.4367 84.6782 44.4184 84.7298C45.2001 84.7705 45.8634 84.5621 46.3451 83.9723C46.4083 83.8949 46.5227 83.8065 46.6146 83.8047C47.0096 83.7926 47.4058 83.7942 47.8055 83.7961C47.9488 83.7968 48.0928 83.7972 48.2372 83.7972C47.8942 85.3215 45.6388 86.4198 43.7141 86.042C41.4996 85.607 40.128 83.6075 40.6566 81.5838C41.1812 79.5713 43.404 78.3754 45.6287 78.8894C47.7288 79.3742 48.9026 81.3848 48.4841 82.9828ZM46.7269 81.7129C46.6247 80.7675 45.6328 80.1077 44.451 80.1575C43.3528 80.2016 42.4591 80.8873 42.4528 81.7129H46.7269ZM47.6201 69.1703C46.218 71.4943 47.8365 74.6679 51.2287 74.6198L51.2859 74.6221L51.3312 74.6226C51.3998 74.6233 51.4689 74.6242 51.537 74.6217C53.4984 74.5442 55.0333 73.2525 55.2926 71.4188C55.5212 69.8024 54.5374 68.0866 52.6352 67.5116C52.0412 67.331 51.4309 67.2756 50.8125 67.3272C49.4022 67.4454 48.306 68.035 47.6201 69.1703ZM51.2287 68.8183C52.5208 68.8238 53.5127 69.7692 53.5026 70.9875C53.4943 72.1816 52.4983 73.1104 51.2228 73.1104C49.9349 73.1104 48.9101 72.1576 48.9143 70.9617C48.9184 69.7601 49.9408 68.8145 51.2287 68.8183ZM61.3374 67.5486C61.9516 67.4842 62.515 67.5025 63.064 67.5284C63.1701 67.8748 63.1802 74.0046 63.0803 74.4082H61.482C61.4598 74.1667 61.4373 73.9272 61.4067 73.6231C61.3664 73.6621 61.3317 73.6949 61.3009 73.724C61.246 73.7761 61.203 73.8165 61.1637 73.8591C60.7229 74.3308 60.1535 74.5905 59.48 74.6147C59.0167 74.6312 58.5368 74.6147 58.0839 74.5298C57.2326 74.3713 56.6367 73.8884 56.3427 73.1532C56.196 72.7845 56.0836 72.3827 56.0733 71.9958C56.0489 70.9426 56.052 69.8894 56.0549 68.8362C56.0559 68.4849 56.057 68.1338 56.057 67.7827C56.057 67.7383 56.0637 67.6939 56.0728 67.6358C56.0766 67.6093 56.081 67.5802 56.0857 67.5467C56.6572 67.4805 57.2163 67.5044 57.8287 67.5321C57.8307 67.5625 57.8333 67.5923 57.8356 67.6216L57.8442 67.7134C57.854 67.8183 57.8633 67.9166 57.8633 68.015C57.8641 68.3549 57.8636 68.6948 57.8633 69.0345C57.8626 69.7808 57.8618 70.5283 57.8716 71.2751C57.8755 71.5773 57.9102 71.887 57.9982 72.1762C58.1491 72.6777 58.5329 72.9872 59.1044 73.0867C59.5002 73.1551 59.8941 73.1383 60.2759 73.0204C60.7718 72.8656 61.0863 72.5431 61.2147 72.0916C61.2903 71.8242 61.327 71.5443 61.3312 71.2679C61.3402 70.4525 61.3392 69.6383 61.3381 68.8236L61.3374 68.0075V67.5486ZM63.9725 74.4215H65.73L65.7341 74.4233V73.9497L65.7339 73.1641C65.7333 72.3792 65.7331 71.5943 65.7362 70.8094C65.7362 70.6122 65.7463 70.4113 65.7789 70.2158C65.9484 69.1747 66.7769 68.6585 67.9179 68.8576C68.5323 68.9645 68.9201 69.2888 69.0691 69.8234C69.1468 70.1017 69.1773 70.3965 69.1815 70.6859C69.1913 71.4422 69.1905 72.1979 69.1895 72.9537C69.1892 73.2971 69.189 73.641 69.1895 73.9848C69.1895 74.0765 69.1983 74.1678 69.2076 74.2673C69.2128 74.3199 69.218 74.3745 69.2221 74.4326C69.8345 74.4454 70.398 74.4529 70.9591 74.4308C70.9656 74.3978 70.9715 74.3701 70.9767 74.3462C70.9881 74.2936 70.9959 74.2578 70.9959 74.2225C70.9954 73.8228 70.9964 73.4231 70.9977 73.0232C71.0008 72.0061 71.0039 70.9882 70.9775 69.9708C70.9674 69.5562 70.8408 69.1305 70.6817 68.7378C70.4019 68.0468 69.8283 67.5935 69.0365 67.4237C68.6139 67.3335 68.1651 67.3096 67.7302 67.317C66.9933 67.3279 66.3646 67.5879 65.8829 68.1094C65.847 68.148 65.8027 68.1796 65.7481 68.2189C65.7163 68.2417 65.6813 68.2668 65.6422 68.2975L65.6264 67.9973L65.614 67.7602L65.6034 67.5472C65.042 67.4921 64.5155 67.4846 63.9461 67.5472V69.8585C63.9461 70.1144 63.9451 70.3707 63.9443 70.6269C63.9425 71.1388 63.9407 71.652 63.9461 72.1639C63.9479 72.3978 63.9456 72.6322 63.943 72.867C63.9376 73.3813 63.9319 73.8993 63.9725 74.4215ZM27.2396 67.5251C27.3876 67.5174 27.5209 67.5105 27.6545 67.5091C27.9482 67.5056 28.2402 67.5056 28.534 67.5091C28.8969 67.5163 28.9036 67.5167 29.034 67.8371C29.3982 68.7262 29.7601 69.616 30.1222 70.506L30.1229 70.5083L30.5834 71.6392C30.6152 71.7187 30.6507 71.7963 30.6975 71.8993L30.7387 71.99L30.7832 72.0888C30.8145 72.024 30.8425 71.9684 30.8673 71.9189C30.9137 71.8263 30.9502 71.754 30.9791 71.6799C31.2315 71.0512 31.4831 70.4218 31.7347 69.7927C31.9863 69.164 32.2376 68.5353 32.4897 67.9073C32.6489 67.5109 32.6509 67.5091 33.1101 67.5074C33.4147 67.506 33.7202 67.5065 34.0101 67.507L34.4164 67.5074C34.4402 67.5304 34.4563 67.5451 34.4671 67.5551L34.4819 67.5688C34.4871 67.5739 34.4899 67.5772 34.492 67.5811C34.4979 67.5921 34.5042 67.6069 34.5021 67.6197C34.4977 67.6372 34.4938 67.6548 34.4897 67.6725C34.4791 67.7199 34.4684 67.7671 34.449 67.8113C33.1551 70.808 31.861 73.8047 30.5547 76.8253H28.6605C28.6784 76.78 28.6945 76.7362 28.71 76.6942C28.741 76.6098 28.77 76.5312 28.8055 76.4549L28.9931 76.049C29.2295 75.5365 29.466 75.0239 29.7179 74.518C29.8362 74.2801 29.8281 74.0758 29.7241 73.8361C29.0327 72.2597 28.3481 70.6796 27.6638 69.0998L27.2013 68.0326C27.1554 67.9273 27.1151 67.8208 27.0667 67.6941L27.0074 67.5386L27.0053 67.5367C27.0884 67.5332 27.1658 67.5291 27.2396 67.5251ZM49.1182 83.9405C49.082 83.9451 49.0416 83.9502 48.9958 83.9553C49.0673 84.7219 49.4366 85.2766 50.1041 85.6728C50.6083 85.9732 51.1778 86.1078 51.7697 86.1225C52.6655 86.1448 53.4901 85.942 54.1372 85.3429C55.2924 84.2778 54.9331 82.6192 53.4229 82.0349C53.2217 81.9579 53.0118 81.8982 52.8022 81.8384C52.7457 81.8222 52.6893 81.8061 52.6329 81.7898C52.5244 81.7575 52.4152 81.7285 52.306 81.6994C52.1336 81.6536 51.9615 81.6078 51.794 81.5501C51.6043 81.4857 51.4143 81.4046 51.2513 81.2958C50.7491 80.9605 50.841 80.38 51.4205 80.1623C52.0187 79.9375 52.5656 80.157 52.7921 80.7117C52.8019 80.7343 52.8182 80.7559 52.8322 80.7745C52.8387 80.7831 52.8446 80.7913 52.8493 80.7982H54.5537C54.4903 80.0868 54.1639 79.556 53.5331 79.1819C53.1697 78.9664 52.7636 78.8504 52.3391 78.8041C51.3595 78.6974 50.4592 78.8706 49.749 79.5286C48.6958 80.5053 48.957 81.8984 50.2959 82.5141C50.4642 82.5924 50.6433 82.6529 50.8226 82.7131L50.9042 82.7408C51.0659 82.7959 51.229 82.8484 51.3921 82.9012C51.6154 82.9733 51.8388 83.0453 52.0593 83.1241C52.2493 83.1923 52.439 83.2715 52.6065 83.3748C53.1288 83.6954 53.1187 84.3201 52.5941 84.6354C51.9452 85.0241 51.0144 84.7384 50.8327 84.1543C50.818 84.1058 50.7916 84.0604 50.7621 84.0093C50.7465 83.9828 50.7302 83.9546 50.7145 83.9239L50.2411 83.9235C49.9273 83.923 49.6152 83.9228 49.3041 83.9239C49.2471 83.9239 49.1899 83.9312 49.1182 83.9405ZM17.8819 74.4178H16.1449C16.0853 73.8856 16.0935 73.3559 16.1017 72.8282C16.1056 72.5794 16.1094 72.3309 16.1062 72.0828C16.0991 71.552 16.1008 71.0203 16.1026 70.4888C16.1033 70.2525 16.1041 70.0168 16.1041 69.781V67.4386V65.1201H17.8819V74.4178ZM45.0952 67.5407H43.4869C43.3725 68.0861 43.4033 74.1109 43.5153 74.4147H45.2135V73.9632C45.2135 73.6686 45.2133 73.3738 45.213 73.0788C45.212 72.3409 45.2112 71.6027 45.2156 70.8654C45.2177 70.6422 45.234 70.4155 45.2769 70.1944C45.4157 69.4683 45.9095 69.0556 46.7241 68.9671C46.8185 68.9559 46.9133 68.9468 47.0165 68.9371C47.0846 68.9303 47.1563 68.9236 47.2342 68.9154C47.2358 68.8066 47.2384 68.6992 47.2407 68.592C47.2505 68.1596 47.2601 67.7348 47.2158 67.277C47.1136 67.2949 47.0165 67.3086 46.9239 67.3217C46.7282 67.3496 46.5527 67.3744 46.3891 67.4281C46.1464 67.5093 45.9116 67.6309 45.7056 67.7746C45.5712 67.868 45.4561 67.985 45.3274 68.1156C45.2681 68.1756 45.2063 68.2386 45.1379 68.3035L45.0952 67.5407Z" fill="white"/>
</svg>
