<svg width="88" height="93" viewBox="0 0 88 93" fill="none" xmlns="http://www.w3.org/2000/svg">
<g clip-path="url(#clip0_15_111)">
<path fill-rule="evenodd" clip-rule="evenodd" d="M72.3078 68.4757L70.0292 75.1472L70.0183 75.1468H70.0142H70.0089H70.0038H70.0007C68.5485 75.1468 13.1477 75.147 12.9914 75.0984C10.4671 74.3122 9.59505 71.3291 10.2318 69.2939C12.3239 62.6052 15.396 52.7699 18.3719 43.2426L18.3753 43.2318L18.3772 43.2255C22.8972 28.755 27.1936 14.9998 27.4955 14.0653C27.9486 12.6626 28.6246 11.2031 31.1348 11.2031C32.1225 11.1934 41.5898 11.2009 43.5107 11.2024L43.8477 11.2026C44.2491 9.97034 44.6514 8.74509 45.054 7.51966C45.6389 5.73912 46.2246 3.95626 46.8062 2.1525H43.7051L44.4202 0.079127C44.1799 0.079127 34.83 0.0352507 30.3346 0.000328911C28.2208 -0.0157889 26.2371 0.560422 24.3946 1.73791C21.702 3.45893 19.8003 5.98673 18.736 9.33476C18.4159 10.3426 0.537033 67.6811 0.381617 68.3861C-0.00712095 70.1516 -0.0974259 71.9465 0.104113 73.7579C0.504866 77.3589 1.87456 80.3734 4.25466 82.7415C6.58242 85.0574 9.31754 86.2891 12.3786 86.3025C24.2503 86.3544 66.3516 86.3983 66.5446 86.3983C66.3717 87.0095 64.7304 92.9872 64.7535 93.0009L79.5815 80.7024L72.3078 68.4757ZM39.6964 69.5393C41.0796 70.3288 42.5679 70.5911 44.0937 70.5965C45.3112 70.6006 48.1477 70.5874 51.2352 70.5734H51.2389H51.2467H51.25H51.2537C55.4005 70.5546 59.9949 70.5338 61.7257 70.5494C62.5729 70.5572 63.3678 70.3718 64.1326 69.9899C66.3991 68.8581 68.1241 67.0774 68.9861 64.3491C71.1116 57.6213 73.2314 50.8909 75.3511 44.1607L75.3542 44.1508L75.3573 44.141L75.3593 44.1346L75.3603 44.1313C77.0229 38.8528 78.6853 33.5743 80.3506 28.2971C80.8127 26.8327 81.0392 25.3343 80.9692 23.7797C80.8861 21.9432 80.3522 20.3149 79.2499 18.9636C78.1851 17.659 76.8477 16.9324 75.3567 16.5334C74.3416 16.2621 73.3122 16.2456 72.2771 16.2487C66.5288 16.2666 60.7804 16.2756 55.0323 16.2742C54.454 16.2742 53.9025 16.3776 53.363 16.5948L53.3337 16.6066C53.039 16.7253 52.7425 16.8449 52.4623 17.0013C50.3182 18.1976 48.7244 19.9849 47.8955 22.6202C46.2133 27.967 44.5288 33.313 42.8443 38.659L42.8384 38.6778L42.8359 38.6854L42.8325 38.6967L42.8253 38.7191C40.7117 45.427 38.598 52.1349 36.4891 58.8448C36.0352 60.2887 35.853 61.789 35.9826 63.3324C36.2237 66.2009 37.4673 68.2678 39.6964 69.5393ZM61.1291 58.6084C60.7792 59.7326 60.1474 60.2376 59.1057 60.2376C57.3619 60.2381 50.388 60.2381 48.6442 60.2376C47.1758 60.2372 46.3034 58.8247 46.7882 57.205C47.0806 56.2276 49.6666 47.9175 52.1484 39.9416L52.1515 39.932L52.1554 39.9191C53.5349 35.4856 54.8817 31.1576 55.7838 28.2523C56.0488 27.3991 56.5146 26.826 57.2915 26.6272C57.4407 26.5887 57.5981 26.5833 57.752 26.5833C61.2777 26.5811 64.8038 26.5811 68.3296 26.582C69.6655 26.5824 70.5365 27.8585 70.2062 29.3592C70.1227 29.7392 66.2131 42.2884 63.173 52.0465L63.1637 52.0759C62.4072 54.5045 61.7048 56.759 61.1291 58.6084ZM18.1308 70.5124L31.4449 28.2476C31.241 28.2465 30.5888 28.2467 29.8113 28.2467C28.2689 28.2467 26.2334 28.2469 26.2291 28.2387C26.223 28.2261 28.3915 21.0537 28.4089 21.0116C28.5984 20.9832 28.7856 20.959 28.9708 20.9351C29.3752 20.8829 29.7704 20.8319 30.1584 20.7407C31.4561 20.4358 32.6439 19.8435 33.6412 18.8066C34.2834 18.1391 34.7864 17.3488 35.1423 16.4418C35.2442 16.1817 35.3744 16.1064 35.6116 16.1069C36.4363 16.1092 37.5085 16.1119 38.6283 16.1147L38.6326 16.1148C41.5282 16.122 44.7415 16.1301 44.8227 16.1355C44.7979 16.4888 32.4851 55.8623 27.8086 70.6713L18.1308 70.5124ZM51.7833 1.66745H55.2282C55.2178 1.70155 55.124 1.9899 54.9789 2.43617L54.9779 2.43971C54.3644 4.32761 52.8375 9.02673 52.8 9.28579C52.6248 10.4928 53.2026 11.3717 54.2514 11.515C54.3793 11.5324 59.5613 11.5239 59.7477 11.4738C61.22 11.0789 62.2792 10.1073 62.8324 8.46019C63.6907 5.90375 65.4489 0.565622 65.4833 0.429515H62.2397C62.2273 0.463929 62.0236 1.07347 61.7324 1.94632C60.9775 4.20767 59.6325 8.23632 59.4898 8.60975C59.0368 9.79485 58.0753 10.4284 56.9958 10.2788C56.4099 10.1973 56.0859 9.76708 56.145 9.09058C56.1657 8.85665 57.9077 3.54486 58.6279 1.34895L58.6289 1.34555C58.8055 0.807456 58.9203 0.457266 58.933 0.416084H45.6243L45.2332 1.62492H48.5077L45.2152 11.5132H48.4986C49.0455 9.8723 51.2326 3.31595 51.7833 1.66745ZM70.1941 11.5387C70.5318 10.5264 71.3211 8.0953 71.3463 7.81862C71.4018 7.20927 71.1456 6.82335 70.6313 6.67917L70.6094 6.67299C70.5165 6.64658 70.4213 6.61957 70.3271 6.61875C69.8986 6.61444 69.4703 6.61503 69.0282 6.61563L68.5516 6.61606L66.9048 11.5378H63.6817C63.703 11.2034 67.0924 0.949761 67.3558 0.416084H67.652L69.1987 0.417968C70.9174 0.419901 72.636 0.421835 74.3547 0.429067C74.5982 0.429963 74.8467 0.453693 75.0839 0.51503C76.0081 0.753214 76.5221 1.65133 76.3431 2.72226C76.1329 3.97767 75.5869 4.9922 74.6715 5.72778C74.624 5.76604 74.5763 5.80385 74.5284 5.84165C74.4806 5.87948 74.4329 5.9174 74.3854 5.95568C74.3795 5.96054 74.3754 5.9682 74.3676 5.98247C74.3625 5.99184 74.3559 6.00404 74.3463 6.02015C74.6218 6.4898 74.7478 7.02795 74.6746 7.60641C74.6357 7.91354 73.8862 10.3249 73.5838 11.2289C73.4661 11.5812 73.4636 11.5835 73.1405 11.583C72.275 11.5821 70.346 11.5548 70.1941 11.5387ZM69.7678 2.95734C69.5008 3.74809 69.2339 4.53879 68.9875 5.3611C69.1842 5.3611 69.3745 5.36221 69.5603 5.36327C69.9571 5.36554 70.3341 5.36772 70.7107 5.35888C71.8367 5.33245 72.8171 4.32331 72.9815 3.03656C73.0811 2.25395 72.7607 1.73729 72.082 1.68984C71.6574 1.66018 71.2307 1.66719 70.7925 1.67438C70.5959 1.67761 70.3967 1.68088 70.1945 1.68088C70.0544 2.11014 69.9109 2.5339 69.7678 2.95734ZM81.892 11.5855H85.0934C85.1281 11.513 86.963 6.07011 87.8404 3.37888C87.9597 3.01266 88.0039 2.5918 87.9978 2.19781C87.9838 1.30685 87.499 0.681841 86.7432 0.519768C86.4909 0.465595 86.2304 0.438733 85.9738 0.437838C83.7787 0.429331 79.1339 0.426645 78.9755 0.426645C78.1461 2.90515 77.3201 5.37466 76.4898 7.85681C76.0777 9.089 75.6645 10.3243 75.2492 11.5654H78.5302C78.5476 11.5153 78.7185 11.0044 78.9714 10.2471C79.5618 8.48086 80.6002 5.37406 81.188 3.64616C81.3179 3.26517 81.4985 2.87924 81.7361 2.5806C82.3369 1.82486 83.0957 1.51146 83.9794 1.76621C84.4557 1.90366 84.7076 2.36302 84.6298 2.92042C84.6134 3.03667 84.1655 4.40673 83.6362 6.02467C82.8383 8.4638 81.8562 11.4663 81.892 11.5855Z" fill="white"/>
</g>
<defs>
<clipPath id="clip0_15_111">
<rect width="88" height="93" fill="white"/>
</clipPath>
</defs>
</svg>
