<svg width="1110" height="212" viewBox="0 0 1110 212" fill="none" xmlns="http://www.w3.org/2000/svg">
<g clip-path="url(#clip0_19_54)">
<path fill-rule="evenodd" clip-rule="evenodd" d="M627.803 6.91388C628.584 4.09467 629.168 3.98823 630.989 3.99423L691.287 4.193C693.18 4.19924 693.676 4.6922 693.052 7.07998C692.499 9.16519 675.554 67.653 673.318 75.9952C672.935 77.4887 671.665 77.8334 671.063 77.8314L618.089 77.6568C609.082 77.6271 608.817 77.7256 605.295 91.0571C598.112 117.46 583.592 170.656 581.135 180.041C580.768 181.398 580.233 182.155 579.222 182.152L539.702 182.021C538.692 182.018 538.532 181.446 538.817 180.369C542.412 166.845 568.093 75.2149 568.716 73.3155C569.84 70.0165 570.948 67.4136 574.795 67.4262L590.94 67.4795C601.109 67.513 611.052 64.9882 615.889 48.0971C615.889 48.0971 627.226 9.0287 627.803 6.91388Z" fill="black" fill-opacity="0.82"/>
<path fill-rule="evenodd" clip-rule="evenodd" d="M574.843 3.7753C569.776 3.56116 555.047 2.8446 542.177 4.52563C486.676 11.9149 446.509 48.5332 432.664 101.582C416.202 164.792 449.436 201.218 472.427 211.484C473.653 212.005 474.498 211.819 474.963 210.381C475.438 208.92 477.971 200.85 478.259 199.68C478.536 198.517 477.938 197.703 476.733 197.08C453.329 184.664 445.543 155.135 454.369 125.629C463.992 93.4363 494.768 74.1611 522.94 70.0292C526.527 69.4992 532.877 68.7185 537.893 68.6341C552.095 68.387 559.587 64.8059 563.14 52.3215C567.065 38.5127 575.408 8.63133 575.932 6.51771C576.452 4.43524 576.021 3.83856 574.843 3.7753Z" fill="black" fill-opacity="0.82"/>
<path fill-rule="evenodd" clip-rule="evenodd" d="M547.393 104.423L521.877 104.35C512.629 104.319 503.596 112.177 499.666 125.622C497.155 134.23 486.299 171.969 484.229 179.969C483.92 181.181 484.421 181.891 485.229 181.893L526.751 182.03C527.95 182.034 528.451 181.375 528.748 180.239C531.551 169.613 548.887 108.16 549.043 107.038C549.196 105.79 548.793 104.428 547.393 104.423Z" fill="black" fill-opacity="0.82"/>
<rect x="940.686" y="-44" width="62" height="305.588" transform="rotate(25.1115 940.686 -44)" fill="#293EB1"/>
<rect x="255.686" y="-65" width="62" height="305.588" transform="rotate(25.1115 255.686 -65)" fill="#C73737"/>
</g>
<defs>
<clipPath id="clip0_19_54">
<rect width="1110" height="212" fill="white"/>
</clipPath>
</defs>
</svg>
