<svg width="405" height="454" viewBox="0 0 405 454" fill="none" xmlns="http://www.w3.org/2000/svg">
<g clip-path="url(#clip0_18_32)">
<path d="M73.8438 119.728C64.5638 119.728 57.3958 117.552 52.3398 113.2C47.3478 108.784 44.8838 102.192 44.9478 93.424H60.5958C60.5318 97.072 61.6198 99.856 63.8598 101.776C66.0998 103.696 69.2358 104.656 73.2678 104.656C76.5958 104.656 79.2198 104.112 81.1398 103.024C83.0598 101.936 84.0198 100.272 84.0198 98.032C84.0198 96.176 83.0278 94.832 81.0438 94C79.1238 93.168 77.2038 92.592 75.2838 92.272C73.3638 91.888 72.1798 91.664 71.7318 91.6C66.8038 90.64 62.5478 89.488 58.9638 88.144C55.3798 86.736 52.3718 84.624 49.9398 81.808C47.5078 78.992 46.2918 75.28 46.2918 70.672C46.2918 66.064 47.5078 62.16 49.9398 58.96C52.3718 55.696 55.6038 53.264 59.6358 51.664C63.7318 50.064 68.1798 49.264 72.9798 49.264C78.8038 49.264 83.8278 50.352 88.0518 52.528C92.3398 54.704 95.6998 58 98.1318 62.416C99.3478 64.528 100.084 66.576 100.34 68.56C100.596 70.48 100.724 72.368 100.724 74.224H85.0758C85.0758 70.768 84.1478 68.24 82.2918 66.64C80.4358 64.976 77.5558 64.144 73.6518 64.144C70.5158 64.144 68.0838 64.688 66.3558 65.776C64.6278 66.864 63.7638 68.336 63.7638 70.192C63.7638 72.24 64.9158 73.744 67.2198 74.704C69.5238 75.664 72.4358 76.528 75.9558 77.296C81.7158 78.448 86.1958 79.568 89.3958 80.656C92.6597 81.68 95.4757 83.536 97.8438 86.224C100.212 88.912 101.396 92.688 101.396 97.552C101.396 102.16 100.116 106.128 97.5558 109.456C94.9958 112.784 91.6038 115.344 87.3798 117.136C83.2198 118.864 78.7078 119.728 73.8438 119.728ZM122.25 118V51.184H150.186C154.858 51.184 158.89 52.048 162.282 53.776C166.186 55.76 169.29 58.608 171.594 62.32C173.898 65.968 175.05 70 175.05 74.416C175.05 78.832 173.898 82.896 171.594 86.608C169.354 90.32 166.282 93.168 162.378 95.152C159.05 96.88 154.986 97.744 150.186 97.744H139.722V118H122.25ZM191.489 51.184H240.161V68.08H208.961V76.528H234.881V92.56H208.961V101.104H240.161V118H191.489V51.184ZM262.551 51.184H311.223V68.08H280.023V76.528H305.943V92.56H280.023V101.104H311.223V118H262.551V51.184ZM333.614 118V51.184H358.478C363.342 51.184 367.822 52.4 371.918 54.832C376.078 57.264 379.374 60.56 381.806 64.72C384.238 68.816 385.454 73.296 385.454 78.16V91.024C385.454 95.888 384.238 100.4 381.806 104.56C379.374 108.656 376.078 111.92 371.918 114.352C367.822 116.784 363.342 118 358.478 118H333.614Z" fill="black"/>
<path d="M39.056 295V205.912H43.792V231.128C52.5813 231.128 60.9013 232.835 68.752 236.248C76.6027 239.576 83.472 244.269 89.36 250.328C95.248 256.301 99.7707 263.171 102.928 270.936V205.912H107.664V295H102.928C102.928 284.333 100.283 274.477 94.992 265.432C89.7013 256.301 82.4907 249.091 73.36 243.8C64.3147 238.509 54.4587 235.864 43.792 235.864V295H39.056ZM136.11 205.912H201.006V228.44H159.406V239.704H193.966V261.08H159.406V272.472H201.006V295H136.11V205.912ZM304.844 295H220.876L262.86 203.992L304.844 295ZM228.3 290.264H297.42L262.86 215.256L228.3 290.264ZM355.306 295V228.44H321.642V205.912H393.578V228.44H359.914V295H355.306Z" fill="black"/>
<g filter="url(#filter0_d_18_32)">
<path d="M89.9759 449V422.056H93.8479V431.272C94.2745 429.843 95.4159 429.128 97.2719 429.128H99.5119C101.133 429.128 102.317 429.448 103.064 430.088C103.811 430.728 104.184 431.859 104.184 433.48V444.616C104.184 446.344 103.789 447.549 103 448.232C102.232 448.893 100.931 449.213 99.0959 449.192L89.9759 449ZM93.8479 432.712V445.896L99.8959 445.96C100.173 445.96 100.312 445.811 100.312 445.512V432.712C100.312 432.413 100.173 432.264 99.8959 432.264H94.2959C93.9972 432.264 93.8479 432.413 93.8479 432.712ZM118.113 453.192V447.24C117.665 448.605 116.524 449.288 114.689 449.288H112.417C110.817 449.288 109.644 448.979 108.897 448.36C108.15 447.72 107.777 446.589 107.777 444.968V429.416H111.649V445.704C111.649 446.003 111.798 446.152 112.097 446.152H118.113L118.081 429.416H121.953L121.985 452.008C121.985 453.779 121.548 455.037 120.673 455.784C119.82 456.531 118.433 456.904 116.513 456.904H108.417V453.64H117.697C117.974 453.64 118.113 453.491 118.113 453.192ZM133.304 449.096L133.272 445.96H141.912C142.211 445.96 142.36 445.821 142.36 445.544V441.032C142.36 440.733 142.211 440.584 141.912 440.584H138.04C136.205 440.584 134.893 440.253 134.104 439.592C133.336 438.909 132.952 437.715 132.952 436.008V433.896C132.952 432.125 133.357 430.888 134.168 430.184C135 429.459 136.323 429.107 138.136 429.128H145.176V432.392L137.304 432.36C137.027 432.36 136.888 432.509 136.888 432.808V437.096C136.888 437.395 137.027 437.544 137.304 437.544H141.144C142.979 437.544 144.28 437.875 145.048 438.536C145.816 439.176 146.2 440.36 146.2 442.088V444.776C146.2 446.397 145.827 447.528 145.08 448.168C144.355 448.787 143.181 449.096 141.56 449.096H133.304ZM158.757 432.456H154.181V445.32C154.181 445.597 154.32 445.736 154.597 445.736H158.757V449H155.781C153.861 449 152.464 448.627 151.589 447.88C150.736 447.133 150.309 445.885 150.309 444.136V432.456H148.005V429.416H150.309V424.424H154.181V429.416H158.757V432.456ZM166.281 449.224C164.34 449.224 162.932 448.851 162.057 448.104C161.204 447.357 160.777 446.099 160.777 444.328V433.8C160.777 432.029 161.15 430.813 161.897 430.152C162.644 429.469 163.924 429.128 165.737 429.128H169.673C171.508 429.128 172.809 429.469 173.577 430.152C174.366 430.813 174.761 432.029 174.761 433.8V441.448H164.681V445.544C164.681 445.821 164.82 445.96 165.097 445.96H174.249V449.224H166.281ZM165.097 432.264C164.82 432.264 164.681 432.413 164.681 432.712V438.632H170.889V432.712C170.889 432.413 170.75 432.264 170.473 432.264H165.097ZM182.12 449.288C180.52 449.288 179.347 448.979 178.6 448.36C177.875 447.72 177.512 446.589 177.512 444.968V442.088C177.512 440.381 177.896 439.197 178.664 438.536C179.453 437.853 180.755 437.512 182.568 437.512H187.592V433.064C187.592 432.787 187.453 432.648 187.176 432.648L178.696 432.68V429.384H186.312C188.147 429.363 189.469 429.715 190.28 430.44C191.091 431.144 191.496 432.381 191.496 434.152V449H188.008L187.688 446.792C187.517 447.624 187.144 448.253 186.568 448.68C186.013 449.085 185.213 449.288 184.168 449.288H182.12ZM187.592 446.152V440.328H181.768C181.491 440.328 181.352 440.467 181.352 440.744V445.704C181.352 446.003 181.491 446.152 181.768 446.152H187.592ZM204.368 429.128C205.627 429.128 206.619 429.32 207.344 429.704C208.069 430.088 208.56 430.739 208.816 431.656C209.2 429.971 210.416 429.128 212.464 429.128H214.256C215.877 429.128 217.051 429.448 217.776 430.088C218.523 430.728 218.896 431.859 218.896 433.48V449H215.024V432.712C215.024 432.413 214.885 432.264 214.608 432.264H209.456C209.179 432.264 209.04 432.413 209.04 432.712L209.008 432.84C209.029 433.053 209.04 433.267 209.04 433.48V449H205.136V432.712C205.136 432.413 204.997 432.264 204.72 432.264H199.504C199.227 432.264 199.088 432.413 199.088 432.712L199.152 449H195.248L195.216 429.416H198.672L198.96 431.4C199.387 429.885 200.571 429.128 202.512 429.128H204.368ZM235.311 449.288C233.37 449.288 231.972 448.925 231.119 448.2C230.266 447.453 229.839 446.195 229.839 444.424V433.992C229.839 432.221 230.266 430.973 231.119 430.248C231.972 429.501 233.37 429.128 235.311 429.128H241.327V432.36H234.191C233.892 432.36 233.743 432.509 233.743 432.808V445.608C233.743 445.907 233.892 446.056 234.191 446.056H241.327V449.288H235.311ZM243.776 433.992C243.776 432.221 244.203 430.973 245.056 430.248C245.91 429.501 247.307 429.128 249.248 429.128H252.736C254.699 429.128 256.107 429.501 256.96 430.248C257.814 430.973 258.24 432.221 258.24 433.992V444.424C258.24 446.195 257.814 447.453 256.96 448.2C256.107 448.925 254.699 449.288 252.736 449.288H249.248C247.307 449.288 245.91 448.925 245.056 448.2C244.203 447.453 243.776 446.195 243.776 444.424V433.992ZM248.128 432.36C247.83 432.36 247.68 432.509 247.68 432.808V445.608C247.68 445.907 247.83 446.056 248.128 446.056H253.92C254.198 446.056 254.336 445.907 254.336 445.608V432.808C254.336 432.509 254.198 432.36 253.92 432.36H248.128ZM271.087 429.128C272.346 429.128 273.338 429.32 274.063 429.704C274.788 430.088 275.279 430.739 275.535 431.656C275.919 429.971 277.135 429.128 279.183 429.128H280.975C282.596 429.128 283.77 429.448 284.495 430.088C285.242 430.728 285.615 431.859 285.615 433.48V449H281.743V432.712C281.743 432.413 281.604 432.264 281.327 432.264H276.175C275.898 432.264 275.759 432.413 275.759 432.712L275.727 432.84C275.748 433.053 275.759 433.267 275.759 433.48V449H271.855V432.712C271.855 432.413 271.716 432.264 271.439 432.264H266.223C265.946 432.264 265.807 432.413 265.807 432.712L265.871 449H261.967L261.935 429.416H265.391L265.679 431.4C266.106 429.885 267.29 429.128 269.231 429.128H271.087ZM300.27 425.512V429.832H296.654V426.184C296.654 425.309 296.856 424.456 297.262 423.624C297.667 422.792 298.232 422.003 298.958 421.256L300.206 422.28C299.822 422.877 299.534 423.464 299.342 424.04C299.15 424.616 299.043 425.107 299.022 425.512H300.27ZM304.583 449V423.624L315.303 423.464C317.287 423.421 318.78 423.869 319.783 424.808C320.786 425.725 321.287 427.091 321.287 428.904V434.088C321.287 435.795 320.786 437.149 319.783 438.152C318.78 439.133 317.287 439.624 315.303 439.624H308.615V449H304.583ZM316.647 426.984H308.615V436.136H316.647C316.988 436.136 317.159 435.965 317.159 435.624V427.496C317.159 427.155 316.988 426.984 316.647 426.984ZM329.719 449.224C327.777 449.224 326.369 448.851 325.495 448.104C324.641 447.357 324.215 446.099 324.215 444.328V433.8C324.215 432.029 324.588 430.813 325.335 430.152C326.081 429.469 327.361 429.128 329.175 429.128H333.111C334.945 429.128 336.247 429.469 337.015 430.152C337.804 430.813 338.199 432.029 338.199 433.8V441.448H328.119V445.544C328.119 445.821 328.257 445.96 328.535 445.96H337.687V449.224H329.719ZM328.535 432.264C328.257 432.264 328.119 432.413 328.119 432.712V438.632H334.327V432.712C334.327 432.413 334.188 432.264 333.911 432.264H328.535ZM355.734 422.056V449H352.31L351.926 446.76C351.755 447.592 351.382 448.221 350.806 448.648C350.251 449.075 349.451 449.288 348.406 449.288H346.166C344.566 449.288 343.392 448.979 342.646 448.36C341.92 447.72 341.558 446.589 341.558 444.968V433.864C341.558 432.157 341.942 430.973 342.71 430.312C343.499 429.629 344.8 429.299 346.614 429.32L351.83 429.352V422.056H355.734ZM345.814 446.152H351.414C351.691 446.152 351.83 446.003 351.83 445.704V432.488L345.814 432.424C345.536 432.424 345.398 432.573 345.398 432.872V445.704C345.398 446.003 345.536 446.152 345.814 446.152ZM369.375 429.128V432.264H364.543C364.244 432.264 364.095 432.413 364.095 432.712L364.127 449H360.287L360.223 429.416H363.679L363.967 431.4C364.394 429.885 365.578 429.128 367.519 429.128H369.375ZM371.12 433.992C371.12 432.221 371.547 430.973 372.4 430.248C373.253 429.501 374.651 429.128 376.592 429.128H380.08C382.043 429.128 383.451 429.501 384.304 430.248C385.157 430.973 385.584 432.221 385.584 433.992V444.424C385.584 446.195 385.157 447.453 384.304 448.2C383.451 448.925 382.043 449.288 380.08 449.288H376.592C374.651 449.288 373.253 448.925 372.4 448.2C371.547 447.453 371.12 446.195 371.12 444.424V433.992ZM375.472 432.36C375.173 432.36 375.024 432.509 375.024 432.808V445.608C375.024 445.907 375.173 446.056 375.472 446.056H381.264C381.541 446.056 381.68 445.907 381.68 445.608V432.808C381.68 432.509 381.541 432.36 381.264 432.36H375.472ZM392.447 425.352C392.447 426.227 392.244 427.08 391.839 427.912C391.433 428.744 390.868 429.533 390.143 430.28L388.895 429.256C389.279 428.659 389.567 428.072 389.759 427.496C389.951 426.92 390.057 426.429 390.079 426.024H388.831V421.704H392.447V425.352Z" fill="black"/>
<path d="M87.6719 453H176.329V454.6H87.6719V453ZM176.328 453H220.56V454.6H176.328V453ZM220.547 453H241.999V454.6H220.547V453ZM241.984 453H287.279V454.6H241.984V453ZM287.266 453H301.71V454.6H287.266V453ZM301.703 453H339.767V454.6H301.703V453ZM339.766 453H369.343V454.6H339.766V453ZM369.328 453H394.335V454.6H369.328V453Z" fill="black"/>
</g>
</g>
<defs>
<filter id="filter0_d_18_32" x="83.6719" y="421.256" width="314.663" height="43.6479" filterUnits="userSpaceOnUse" color-interpolation-filters="sRGB">
<feFlood flood-opacity="0" result="BackgroundImageFix"/>
<feColorMatrix in="SourceAlpha" type="matrix" values="0 0 0 0 0 0 0 0 0 0 0 0 0 0 0 0 0 0 127 0" result="hardAlpha"/>
<feOffset dy="4"/>
<feGaussianBlur stdDeviation="2"/>
<feComposite in2="hardAlpha" operator="out"/>
<feColorMatrix type="matrix" values="0 0 0 0 0 0 0 0 0 0 0 0 0 0 0 0 0 0 0.25 0"/>
<feBlend mode="normal" in2="BackgroundImageFix" result="effect1_dropShadow_18_32"/>
<feBlend mode="normal" in="SourceGraphic" in2="effect1_dropShadow_18_32" result="shape"/>
</filter>
<clipPath id="clip0_18_32">
<rect width="405" height="454" fill="white"/>
</clipPath>
</defs>
</svg>
