<svg width="357" height="90" viewBox="0 0 357 90" fill="none" xmlns="http://www.w3.org/2000/svg">
<path d="M0.672001 89.872V0.783997H5.664L67.872 61.328V0.783997H72.608V89.872H0.672001ZM98.11 0.911995H163.006V23.44H121.406V34.704H155.966V56.08H121.406V67.472H163.006V90H98.11V0.911995ZM192.86 0.911995H257.756V23.44H216.156V34.704H250.716V56.08H216.156V67.472H257.756V90H192.86V0.911995ZM287.61 90V0.911995H320.762C327.247 0.911995 333.221 2.53333 338.682 5.77599C344.229 9.01866 348.623 13.4133 351.866 18.96C355.109 24.4213 356.73 30.3947 356.73 36.88V54.032C356.73 60.5173 355.109 66.5333 351.866 72.08C348.623 77.5413 344.229 81.8933 338.682 85.136C333.221 88.3787 327.247 90 320.762 90H287.61Z" fill="black"/>
</svg>
