<svg width="258" height="95" viewBox="0 0 258 95" fill="none" xmlns="http://www.w3.org/2000/svg">
<path d="M66.563 2.91199V7.64799H5.251V36.192H54.403V58.72H5.251V92H0.515001V2.91199H66.563ZM88.865 37.6C88.865 30.944 90.529 24.7573 93.857 19.04C97.185 13.3227 101.665 8.8 107.297 5.47199C113.014 2.14399 119.244 0.479996 125.985 0.479996C132.726 0.479996 138.913 2.14399 144.545 5.47199C150.262 8.8 154.785 13.3227 158.113 19.04C161.441 24.7573 163.105 30.944 163.105 37.6V57.312C163.105 63.968 161.441 70.1547 158.113 75.872C154.785 81.5893 150.262 86.112 144.545 89.44C138.913 92.768 132.726 94.432 125.985 94.432C119.244 94.432 113.014 92.768 107.297 89.44C101.665 86.112 97.185 81.5893 93.857 75.872C90.529 70.1547 88.865 63.968 88.865 57.312V37.6ZM112.161 57.312C112.161 61.408 113.441 64.9067 116.001 67.808C118.561 70.7093 121.889 72.16 125.985 72.16C129.996 72.16 133.281 70.7093 135.841 67.808C138.401 64.9067 139.681 61.408 139.681 57.312V37.472C139.681 33.2907 138.401 29.792 135.841 26.976C133.281 24.16 129.996 22.752 125.985 22.752C121.889 22.752 118.561 24.16 116.001 26.976C113.441 29.792 112.161 33.2907 112.161 37.472V57.312ZM257.599 92H189.119V2.91199H223.807C231.231 2.91199 237.29 4.23466 241.983 6.88C246.591 9.43999 250.175 12.9387 252.735 17.376C255.295 21.8133 256.575 26.72 256.575 32.096C256.575 38.752 254.527 44.7253 250.431 50.016C246.335 55.2213 241.172 58.6773 234.943 60.384L257.599 92ZM197.183 7.64799L231.999 56.288C237.716 55.0933 242.452 52.2347 246.207 47.712C249.962 43.1893 251.839 37.984 251.839 32.096C251.839 27.4027 250.687 23.136 248.383 19.296C246.079 15.456 242.836 12.512 238.655 10.464C234.9 8.58666 229.994 7.64799 223.935 7.64799H197.183ZM193.855 10.72V56.672H226.751L193.855 10.72ZM193.855 87.264H248.639L229.951 61.28L225.983 61.408H193.855V87.264Z" fill="black"/>
</svg>
