<svg width="425" height="500" viewBox="0 0 425 500" fill="none" xmlns="http://www.w3.org/2000/svg">
<g clip-path="url(#clip0_17_393)">
<rect x="314.371" width="68" height="284" transform="rotate(30.3199 314.371 0)" fill="#F4EB16"/>
<path d="M231.006 -40.8971L289.705 -6.56885L165.199 206.328L106.5 172L231.006 -40.8971Z" fill="#F4EB16"/>
<path d="M7 202H418" stroke="black" stroke-width="3"/>
<path d="M139.998 393.968C142.046 393.968 143.646 394.544 144.798 395.696C146.014 396.848 146.622 398.448 146.622 400.496C146.622 401.008 146.59 401.552 146.526 402.128C146.462 402.64 146.334 403.088 146.142 403.472C145.31 403.344 144.382 403.248 143.358 403.184C142.334 403.056 141.118 402.992 139.71 402.992C136.83 402.992 133.95 403.248 131.07 403.76C128.19 404.272 125.438 404.688 122.814 405.008C119.934 411.792 117.566 418.16 115.71 424.112C113.854 430.064 112.414 435.952 111.39 441.776C109.214 441.264 107.294 440.336 105.63 438.992C103.966 437.648 102.398 435.76 100.926 433.328C101.374 432.304 101.918 431.088 102.558 429.68C103.198 428.208 103.966 426.384 104.862 424.208C105.758 421.968 106.814 419.28 108.03 416.144C109.31 412.944 110.814 409.136 112.542 404.72C109.854 403.824 108.094 402.256 107.262 400.016C107.582 399.696 108.478 399.344 109.95 398.96C111.422 398.512 113.214 398.032 115.326 397.52C116.286 395.024 117.118 392.816 117.822 390.896C118.526 388.912 119.166 387.056 119.742 385.328C120.318 383.536 120.83 381.808 121.278 380.144C121.79 378.416 122.238 376.592 122.622 374.672H122.142C119.71 374.672 117.726 374.096 116.19 372.944C114.718 371.792 113.982 370.288 113.982 368.432C113.982 367.92 114.046 367.312 114.174 366.608C114.366 365.904 114.59 365.296 114.846 364.784C116.062 364.976 117.246 365.104 118.398 365.168C119.614 365.232 121.182 365.264 123.102 365.264C127.134 365.264 130.91 365.168 134.43 364.976C137.95 364.72 141.118 364.464 143.934 364.208C146.814 363.952 149.278 363.728 151.326 363.536C153.374 363.28 154.942 363.152 156.03 363.152C157.502 363.152 158.814 363.92 159.966 365.456C161.118 366.992 162.014 369.168 162.654 371.984C160.606 371.792 158.942 371.664 157.662 371.6C156.446 371.536 155.358 371.504 154.398 371.504C151.134 371.504 148.126 371.664 145.374 371.984C142.686 372.24 140.126 372.56 137.694 372.944C137.31 373.52 136.862 374.256 136.35 375.152C135.902 376.048 135.294 377.328 134.526 378.992C133.758 380.592 132.766 382.704 131.55 385.328C130.398 387.952 128.926 391.28 127.134 395.312C129.63 394.928 131.998 394.608 134.238 394.352C136.542 394.096 138.462 393.968 139.998 393.968ZM192.297 393.104C194.409 393.104 196.041 393.68 197.193 394.832C198.409 395.984 199.017 397.584 199.017 399.632C199.017 400.144 198.953 400.688 198.825 401.264C198.761 401.776 198.665 402.224 198.537 402.608C197.705 402.48 196.777 402.384 195.753 402.32C194.729 402.192 193.513 402.128 192.105 402.128C189.353 402.128 186.569 402.384 183.753 402.896C180.937 403.344 178.249 403.728 175.689 404.048C174.217 407.44 172.873 410.736 171.657 413.936C170.441 417.072 169.385 419.952 168.489 422.576C167.657 425.2 166.985 427.472 166.473 429.392C166.025 431.312 165.769 432.752 165.705 433.712C170.889 432.624 176.105 431.696 181.353 430.928C186.665 430.16 192.233 429.584 198.057 429.2C198.761 430.288 199.337 431.472 199.785 432.752C200.297 434.032 200.553 435.408 200.553 436.88C200.553 437.264 200.553 437.68 200.553 438.128C200.553 438.576 200.489 439.024 200.361 439.472C198.569 439.408 196.681 439.344 194.697 439.28C192.713 439.28 190.121 439.28 186.921 439.28C184.809 439.28 182.793 439.312 180.873 439.376C179.017 439.504 177.129 439.664 175.209 439.856C173.289 440.048 171.241 440.304 169.065 440.624C166.953 440.944 164.553 441.328 161.865 441.776C158.921 440.624 156.073 437.808 153.321 433.328C154.409 431.024 155.913 427.536 157.833 422.864C159.817 418.128 162.313 411.824 165.321 403.952C162.441 403.056 160.553 401.456 159.657 399.152C159.977 398.832 160.905 398.448 162.441 398C163.977 397.488 165.865 396.976 168.105 396.464C169.065 393.968 169.865 391.792 170.505 389.936C171.209 388.08 171.817 386.352 172.329 384.752C172.841 383.088 173.289 381.488 173.673 379.952C174.121 378.352 174.537 376.624 174.921 374.768C172.681 374.64 170.921 374.032 169.641 372.944C168.361 371.792 167.721 370.32 167.721 368.528C167.721 368.016 167.785 367.408 167.913 366.704C168.105 366 168.297 365.392 168.489 364.88C169.769 365.072 170.985 365.2 172.137 365.264C173.353 365.328 174.921 365.36 176.841 365.36C180.873 365.36 184.649 365.264 188.169 365.072C191.689 364.816 194.857 364.56 197.673 364.304C200.553 364.048 203.017 363.824 205.065 363.632C207.113 363.376 208.681 363.248 209.769 363.248C211.241 363.248 212.553 364.016 213.705 365.552C214.857 367.088 215.721 369.264 216.297 372.08C214.313 371.888 212.681 371.76 211.401 371.696C210.185 371.632 209.097 371.6 208.137 371.6C204.617 371.6 201.385 371.792 198.441 372.176C195.561 372.496 192.777 372.848 190.089 373.232C189.705 373.808 189.257 374.544 188.745 375.44C188.297 376.336 187.689 377.584 186.921 379.184C186.153 380.784 185.193 382.8 184.041 385.232C182.953 387.664 181.609 390.704 180.009 394.352C182.441 393.968 184.713 393.68 186.825 393.488C189.001 393.232 190.825 393.104 192.297 393.104ZM273.741 369.296C273.933 370.384 274.061 371.152 274.125 371.6C274.253 371.984 274.317 372.528 274.317 373.232C274.317 375.344 273.837 377.328 272.877 379.184C271.981 380.976 270.733 382.256 269.133 383.024C267.853 381.296 266.285 379.824 264.429 378.608C262.573 377.328 260.525 376.304 258.285 375.536C256.109 374.704 253.837 374.096 251.469 373.712C249.101 373.328 246.797 373.136 244.557 373.136C242.317 373.136 240.205 373.328 238.221 373.712C236.301 374.032 234.573 374.512 233.037 375.152C231.565 375.728 230.381 376.464 229.485 377.36C228.653 378.256 228.237 379.28 228.237 380.432C228.429 381.84 229.293 383.28 230.829 384.752C232.365 386.16 234.253 387.568 236.493 388.976C238.733 390.32 241.197 391.664 243.885 393.008C246.637 394.352 249.325 395.632 251.949 396.848C255.213 398.384 258.029 399.824 260.397 401.168C262.765 402.448 264.717 403.888 266.253 405.488C267.789 407.024 268.941 408.784 269.709 410.768C270.477 412.752 270.861 415.152 270.861 417.968C270.861 421.232 270.317 424.304 269.229 427.184C268.141 430 266.541 432.464 264.429 434.576C262.381 436.688 259.885 438.32 256.941 439.472C253.997 440.688 250.701 441.296 247.053 441.296C243.469 441.296 239.597 440.752 235.437 439.664C231.277 438.576 227.373 437.072 223.725 435.152C220.141 433.296 217.133 431.152 214.701 428.72C212.333 426.224 211.149 423.6 211.149 420.848C211.149 419.568 211.501 417.936 212.205 415.952C212.973 413.968 214.317 411.888 216.237 409.712C216.429 411.632 217.453 413.904 219.309 416.528C221.229 419.152 224.077 421.584 227.853 423.824C231.373 425.872 234.989 427.376 238.701 428.336C242.477 429.232 245.997 429.68 249.261 429.68C252.845 429.68 255.757 429.232 257.997 428.336C260.237 427.44 261.997 426.384 263.277 425.168C264.557 423.888 265.453 422.608 265.965 421.328C266.477 420.048 266.765 419.024 266.829 418.256C266.765 416.976 266.157 415.76 265.005 414.608C263.917 413.392 262.413 412.24 260.493 411.152C258.637 410 256.461 408.848 253.965 407.696C251.469 406.544 248.877 405.392 246.189 404.24C242.157 402.448 238.669 400.784 235.725 399.248C232.845 397.648 230.445 396.048 228.525 394.448C226.669 392.784 225.293 391.056 224.397 389.264C223.565 387.472 223.149 385.424 223.149 383.12C223.149 379.536 224.237 376.144 226.413 372.944C228.589 369.744 231.725 367.312 235.821 365.648C237.869 364.752 240.045 364.112 242.349 363.728C244.717 363.344 247.021 363.152 249.261 363.152C253.485 363.152 257.613 363.728 261.645 364.88C265.677 366.032 269.709 367.504 273.741 369.296ZM294.188 375.824C291.628 375.824 289.644 375.12 288.236 373.712C286.892 372.24 286.22 370.48 286.22 368.432C286.22 367.92 286.284 367.312 286.412 366.608C286.604 365.904 286.828 365.296 287.084 364.784C287.916 365.168 289.132 365.456 290.732 365.648C292.396 365.776 294.316 365.84 296.492 365.84C299.756 365.84 303.436 365.712 307.532 365.456C311.692 365.136 315.66 364.816 319.436 364.496C323.212 364.176 326.54 363.888 329.42 363.632C332.3 363.312 334.156 363.152 334.988 363.152C337.356 363.152 339.052 364.048 340.076 365.84C341.164 367.568 341.964 369.904 342.476 372.848C340.812 372.72 339.148 372.624 337.484 372.56C335.884 372.432 334.508 372.368 333.356 372.368C331.308 372.368 329.228 372.432 327.116 372.56C325.068 372.688 322.988 372.88 320.876 373.136C319.98 374.992 318.988 377.2 317.9 379.76C316.812 382.256 315.724 384.88 314.636 387.632C313.612 390.384 312.62 393.136 311.66 395.888C310.7 398.576 309.868 401.008 309.164 403.184C307.756 407.408 306.508 411.312 305.42 414.896C304.396 418.48 303.468 421.84 302.636 424.976C301.868 428.048 301.196 430.992 300.62 433.808C300.044 436.624 299.532 439.376 299.084 442.064C294.796 441.424 291.212 438.736 288.332 434C288.844 432.016 289.452 429.872 290.156 427.568C290.924 425.2 291.788 422.544 292.748 419.6C293.772 416.592 294.956 413.2 296.3 409.424C297.644 405.648 299.18 401.36 300.908 396.56C301.548 394.768 302.22 392.912 302.924 390.992C303.628 389.008 304.3 387.056 304.94 385.136C305.644 383.216 306.252 381.36 306.764 379.568C307.34 377.776 307.82 376.144 308.204 374.672C305.516 374.992 302.956 375.28 300.524 375.536C298.156 375.728 296.044 375.824 294.188 375.824Z" fill="#F4EB16"/>
</g>
<defs>
<clipPath id="clip0_17_393">
<rect width="425" height="500" fill="white"/>
</clipPath>
</defs>
</svg>
