<svg width="646" height="201" viewBox="0 0 646 201" fill="none" xmlns="http://www.w3.org/2000/svg">
<g clip-path="url(#clip0_17_360)">
<g filter="url(#filter0_d_17_360)">
<rect x="32" y="25" width="587" height="155" rx="35" fill="url(#paint0_linear_17_360)"/>
</g>
<g filter="url(#filter1_d_17_360)">
<path d="M81.1965 159.152C73.4312 159.152 67.6712 157.531 63.9165 154.288C60.2472 151.045 58.4125 145.925 58.4125 138.928V75.696C58.4125 68.6133 60.2472 63.4507 63.9165 60.208C67.6712 56.9653 73.4312 55.344 81.1965 55.344H124.717V69.808H76.4605C75.3512 69.808 74.7965 70.3627 74.7965 71.472V143.024C74.7965 144.133 75.3512 144.688 76.4605 144.688H109.229C110.423 144.688 111.021 144.133 111.021 143.024V117.168H94.8925V103.6H126.637V138.928C126.637 145.925 124.759 151.045 121.005 154.288C117.25 157.531 111.49 159.152 103.725 159.152H81.1965ZM202.278 158L196.518 132.528H157.734L151.206 158H136.23L159.398 72.368C160.592 68.016 161.83 64.688 163.11 62.384C164.39 59.9947 166.224 58.3307 168.614 57.392C171.003 56.4533 174.331 56.0267 178.598 56.112L194.47 56.496L218.406 158H202.278ZM173.478 72.112L161.19 118.704H193.446L182.31 70.32H175.27C174.246 70.32 173.648 70.9173 173.478 72.112ZM284.837 158H230.949V56.496H247.077V144.048H284.837V158ZM350.587 158H296.699V56.496H312.827V144.048H350.587V158ZM362.449 158V56.496H419.921V70.448H378.577V99.632H417.104V113.456H378.577V144.048H420.817V158H362.449ZM437.458 158V56.496L480.21 55.856C488.146 55.6853 494.119 57.4773 498.13 61.232C502.226 64.9013 504.274 70.3627 504.274 77.616V95.792C504.274 106.629 499.58 113.499 490.194 116.4C492.754 118.192 494.887 121.563 496.594 126.512L507.73 158H491.474L478.674 120.24C478.418 119.472 478.119 118.96 477.778 118.704C477.522 118.363 476.967 118.192 476.114 118.192H453.586V158H437.458ZM485.714 69.936H453.586V104.368H485.714C487.079 104.368 487.762 103.643 487.762 102.192V71.984C487.762 70.6187 487.079 69.936 485.714 69.936ZM547.245 158V121.52C543.49 120.837 540.717 119.387 538.925 117.168C537.133 114.864 535.341 111.408 533.549 106.8L514.349 56.496H531.373L550.317 106.416C550.658 107.525 551.341 108.08 552.365 108.08H559.149C560.173 108.08 560.855 107.525 561.197 106.416L580.269 56.496H596.397L576.685 106.928C575.405 110.171 574.21 112.816 573.101 114.864C572.077 116.912 570.797 118.491 569.261 119.6C567.81 120.624 565.805 121.307 563.245 121.648V158H547.245Z" fill="white" fill-opacity="0.24" shape-rendering="crispEdges"/>
</g>
</g>
<defs>
<filter id="filter0_d_17_360" x="28" y="25" width="595" height="163" filterUnits="userSpaceOnUse" color-interpolation-filters="sRGB">
<feFlood flood-opacity="0" result="BackgroundImageFix"/>
<feColorMatrix in="SourceAlpha" type="matrix" values="0 0 0 0 0 0 0 0 0 0 0 0 0 0 0 0 0 0 127 0" result="hardAlpha"/>
<feOffset dy="4"/>
<feGaussianBlur stdDeviation="2"/>
<feComposite in2="hardAlpha" operator="out"/>
<feColorMatrix type="matrix" values="0 0 0 0 0 0 0 0 0 0 0 0 0 0 0 0 0 0 0.25 0"/>
<feBlend mode="normal" in2="BackgroundImageFix" result="effect1_dropShadow_17_360"/>
<feBlend mode="normal" in="SourceGraphic" in2="effect1_dropShadow_17_360" result="shape"/>
</filter>
<filter id="filter1_d_17_360" x="54.4126" y="55.344" width="545.984" height="111.808" filterUnits="userSpaceOnUse" color-interpolation-filters="sRGB">
<feFlood flood-opacity="0" result="BackgroundImageFix"/>
<feColorMatrix in="SourceAlpha" type="matrix" values="0 0 0 0 0 0 0 0 0 0 0 0 0 0 0 0 0 0 127 0" result="hardAlpha"/>
<feOffset dy="4"/>
<feGaussianBlur stdDeviation="2"/>
<feComposite in2="hardAlpha" operator="out"/>
<feColorMatrix type="matrix" values="0 0 0 0 0 0 0 0 0 0 0 0 0 0 0 0 0 0 0.25 0"/>
<feBlend mode="normal" in2="BackgroundImageFix" result="effect1_dropShadow_17_360"/>
<feBlend mode="normal" in="SourceGraphic" in2="effect1_dropShadow_17_360" result="shape"/>
</filter>
<linearGradient id="paint0_linear_17_360" x1="32" y1="171.85" x2="619" y2="33.1497" gradientUnits="userSpaceOnUse">
<stop stop-color="#3C4C9F"/>
<stop offset="1" stop-color="#0E0E16"/>
</linearGradient>
<clipPath id="clip0_17_360">
<rect width="646" height="201" fill="white"/>
</clipPath>
</defs>
</svg>
