<svg width="913" height="398" viewBox="0 0 913 398" fill="none" xmlns="http://www.w3.org/2000/svg">
<g clip-path="url(#clip0_17_420)">
<rect width="37.4418" height="134.11" transform="matrix(0.986327 0.164798 -0.247071 0.968997 665.496 10.5183)" fill="#830505"/>
<rect width="37.2763" height="138.55" transform="matrix(0.325792 0.945441 -0.916938 0.399029 774.042 72.427)" fill="#830505"/>
<rect x="644.248" y="126.427" width="35.7714" height="18.3787" transform="rotate(41.7909 644.248 126.427)" fill="#830505"/>
<rect x="812.82" y="111.427" width="48.2733" height="159.343" transform="rotate(43.5674 812.82 111.427)" fill="#830505"/>
<rect x="872.116" y="166.427" width="127.359" height="37.8925" transform="rotate(43.5674 872.116 166.427)" fill="#830505"/>
<rect x="935.615" y="226.427" width="38.0024" height="92.3022" transform="rotate(43.5674 935.615 226.427)" fill="#830505"/>
<rect x="826.671" y="213.105" width="126.332" height="34.9777" transform="rotate(43.5674 826.671 213.105)" fill="#830505"/>
<path d="M825.841 212.166L853.376 238.358L803.823 290.453L776.288 264.261L825.841 212.166Z" fill="#830505"/>
<rect x="787.768" y="252.427" width="130.441" height="33.0345" transform="rotate(43.5674 787.768 252.427)" fill="#830505"/>
<path d="M162.5 131.427C162.5 171.736 127.424 204.927 83.5 204.927C39.5758 204.927 4.5 171.736 4.5 131.427C4.5 91.118 39.5758 57.927 83.5 57.927C127.424 57.927 162.5 91.118 162.5 131.427Z" stroke="#830505" stroke-width="9"/>
<path d="M125.5 130.927C125.5 152.834 106.884 170.927 83.5 170.927C60.1155 170.927 41.5 152.834 41.5 130.927C41.5 109.02 60.1155 90.927 83.5 90.927C106.884 90.927 125.5 109.02 125.5 130.927Z" stroke="#D9D9D9" stroke-width="9"/>
<g filter="url(#filter0_d_17_420)">
<path d="M203.858 373.339H196.874V381.427H193.85V362.395H204.41V365.011H196.874V370.747H203.858V373.339ZM213.453 366.523V368.875H209.829C209.605 368.875 209.493 368.987 209.493 369.211L209.517 381.427H206.637L206.589 366.739H209.181L209.397 368.227C209.717 367.091 210.605 366.523 212.061 366.523H213.453ZM214.762 370.171C214.762 368.843 215.082 367.907 215.722 367.363C216.362 366.803 217.41 366.523 218.866 366.523H221.482C222.954 366.523 224.01 366.803 224.65 367.363C225.29 367.907 225.61 368.843 225.61 370.171V377.995C225.61 379.323 225.29 380.267 224.65 380.827C224.01 381.371 222.954 381.643 221.482 381.643H218.866C217.41 381.643 216.362 381.371 215.722 380.827C215.082 380.267 214.762 379.323 214.762 377.995V370.171ZM218.026 368.947C217.802 368.947 217.69 369.059 217.69 369.283V378.883C217.69 379.107 217.802 379.219 218.026 379.219H222.37C222.578 379.219 222.682 379.107 222.682 378.883V369.283C222.682 369.059 222.578 368.947 222.37 368.947H218.026ZM235.245 366.523C236.189 366.523 236.933 366.667 237.477 366.955C238.021 367.243 238.389 367.731 238.581 368.419C238.869 367.155 239.781 366.523 241.317 366.523H242.661C243.877 366.523 244.757 366.763 245.301 367.243C245.861 367.723 246.141 368.571 246.141 369.787V381.427H243.237V369.211C243.237 368.987 243.133 368.875 242.925 368.875H239.061C238.853 368.875 238.749 368.987 238.749 369.211L238.725 369.307C238.741 369.467 238.749 369.627 238.749 369.787V381.427H235.821V369.211C235.821 368.987 235.717 368.875 235.509 368.875H231.597C231.389 368.875 231.285 368.987 231.285 369.211L231.333 381.427H228.405L228.381 366.739H230.973L231.189 368.227C231.509 367.091 232.397 366.523 233.853 366.523H235.245ZM254.78 372.859V369.475H257.612V372.859H254.78ZM254.78 380.683V377.323H257.612V380.683H254.78ZM271.484 377.899C271.484 379.227 271.148 380.187 270.476 380.779C269.82 381.355 268.804 381.643 267.428 381.643H265.196V378.931H268.148C268.356 378.931 268.46 378.827 268.46 378.619V362.395H271.484V377.899ZM278.454 381.643C277.238 381.643 276.35 381.411 275.79 380.947C275.246 380.467 274.974 379.619 274.974 378.403V366.739H277.878V378.955C277.878 379.179 277.982 379.291 278.19 379.291H282.726L282.702 366.739H285.606L285.654 381.427H283.062L282.798 379.819C282.67 380.427 282.39 380.883 281.958 381.187C281.526 381.491 280.926 381.643 280.158 381.643H278.454ZM289.118 381.427V361.219H292.046V381.427H289.118ZM299.398 381.595C297.942 381.595 296.886 381.315 296.23 380.755C295.59 380.195 295.27 379.251 295.27 377.923V370.027C295.27 368.699 295.55 367.787 296.11 367.291C296.67 366.779 297.63 366.523 298.99 366.523H301.942C303.318 366.523 304.294 366.779 304.87 367.291C305.462 367.787 305.758 368.699 305.758 370.027V375.763H298.198V378.835C298.198 379.043 298.302 379.147 298.51 379.147H305.374V381.595H299.398ZM298.51 368.875C298.302 368.875 298.198 368.987 298.198 369.211V373.651H302.854V369.211C302.854 368.987 302.75 368.875 302.542 368.875H298.51ZM308.158 381.499L308.134 379.147H314.614C314.838 379.147 314.95 379.043 314.95 378.835V375.451C314.95 375.227 314.838 375.115 314.614 375.115H311.71C310.334 375.115 309.35 374.867 308.758 374.371C308.182 373.859 307.894 372.963 307.894 371.683V370.099C307.894 368.771 308.198 367.843 308.806 367.315C309.43 366.771 310.422 366.507 311.782 366.523H317.062V368.971L311.158 368.947C310.95 368.947 310.846 369.059 310.846 369.283V372.499C310.846 372.723 310.95 372.835 311.158 372.835H314.038C315.414 372.835 316.39 373.083 316.966 373.579C317.542 374.059 317.83 374.947 317.83 376.243V378.259C317.83 379.475 317.55 380.323 316.99 380.803C316.446 381.267 315.566 381.499 314.35 381.499H308.158ZM336.113 361.219V381.427H333.545L333.257 379.747C333.129 380.371 332.849 380.843 332.417 381.163C332.001 381.483 331.401 381.643 330.617 381.643H328.937C327.737 381.643 326.857 381.411 326.297 380.947C325.753 380.467 325.481 379.619 325.481 378.403V370.075C325.481 368.795 325.769 367.907 326.345 367.411C326.937 366.899 327.913 366.651 329.273 366.667L333.185 366.691V361.219H336.113ZM328.673 379.291H332.873C333.081 379.291 333.185 379.179 333.185 378.955V369.043L328.673 368.995C328.465 368.995 328.361 369.107 328.361 369.331V378.955C328.361 379.179 328.465 379.291 328.673 379.291ZM343.344 381.595C341.888 381.595 340.832 381.315 340.176 380.755C339.536 380.195 339.216 379.251 339.216 377.923V370.027C339.216 368.699 339.496 367.787 340.056 367.291C340.616 366.779 341.576 366.523 342.936 366.523H345.888C347.264 366.523 348.24 366.779 348.816 367.291C349.408 367.787 349.704 368.699 349.704 370.027V375.763H342.144V378.835C342.144 379.043 342.248 379.147 342.456 379.147H349.32V381.595H343.344ZM342.456 368.875C342.248 368.875 342.144 368.987 342.144 369.211V373.651H346.8V369.211C346.8 368.987 346.696 368.875 346.488 368.875H342.456ZM363.008 377.899C363.008 379.227 362.672 380.187 362 380.779C361.344 381.355 360.328 381.643 358.952 381.643H356.72V378.931H359.672C359.88 378.931 359.984 378.827 359.984 378.619V362.395H363.008V377.899ZM366.449 370.171C366.449 368.843 366.769 367.907 367.409 367.363C368.049 366.803 369.097 366.523 370.553 366.523H373.169C374.641 366.523 375.697 366.803 376.337 367.363C376.977 367.907 377.297 368.843 377.297 370.171V377.995C377.297 379.323 376.977 380.267 376.337 380.827C375.697 381.371 374.641 381.643 373.169 381.643H370.553C369.097 381.643 368.049 381.371 367.409 380.827C366.769 380.267 366.449 379.323 366.449 377.995V370.171ZM369.713 368.947C369.489 368.947 369.377 369.059 369.377 369.283V378.883C369.377 379.107 369.489 379.219 369.713 379.219H374.057C374.265 379.219 374.369 379.107 374.369 378.883V369.283C374.369 369.059 374.265 368.947 374.057 368.947H369.713ZM387.46 366.523C388.66 366.523 389.54 366.763 390.1 367.243C390.66 367.723 390.94 368.571 390.94 369.787V381.427H388.036V369.211C388.036 368.987 387.932 368.875 387.724 368.875H383.524C383.3 368.875 383.188 368.987 383.188 369.211L383.212 381.427H380.332L380.284 366.739H382.876L383.092 368.227C383.412 367.091 384.3 366.523 385.756 366.523H387.46ZM401.364 384.571V380.035C401.204 380.579 400.916 380.987 400.5 381.259C400.084 381.515 399.516 381.643 398.796 381.643H397.116C395.916 381.643 395.036 381.411 394.476 380.947C393.932 380.467 393.66 379.619 393.66 378.403V370.075C393.66 368.795 393.948 367.899 394.524 367.387C395.116 366.875 396.092 366.635 397.452 366.667L404.292 366.739V383.683C404.292 385.011 403.964 385.955 403.308 386.515C402.668 387.075 401.628 387.355 400.188 387.355H394.116V384.907H401.052C401.26 384.907 401.364 384.795 401.364 384.571ZM396.852 379.291H401.052C401.26 379.291 401.364 379.179 401.364 378.955V369.115L396.852 369.091C396.644 369.091 396.54 369.195 396.54 369.403V378.955C396.54 379.179 396.644 379.291 396.852 379.291ZM414.317 366.523C415.533 366.523 416.421 366.763 416.981 367.243C417.541 367.723 417.821 368.571 417.821 369.787V381.427H414.893V369.211C414.893 368.987 414.789 368.875 414.581 368.875H410.381C410.173 368.875 410.069 368.987 410.069 369.211L410.093 381.427H407.189L407.165 361.219H410.069V367.891C410.453 366.979 411.309 366.523 412.637 366.523H414.317ZM423.207 380.851C423.207 381.523 423.047 382.179 422.727 382.819C422.423 383.475 421.991 384.083 421.431 384.643L420.471 383.875C420.759 383.411 420.975 382.955 421.119 382.507C421.279 382.075 421.375 381.699 421.407 381.379H420.423V378.043H423.207V380.851ZM436.672 377.899C436.672 379.227 436.336 380.187 435.664 380.779C435.008 381.355 433.992 381.643 432.616 381.643H430.384V378.931H433.336C433.544 378.931 433.648 378.827 433.648 378.619V362.395H436.672V377.899ZM443.114 381.643C441.914 381.643 441.034 381.411 440.474 380.947C439.93 380.467 439.658 379.619 439.658 378.403V376.243C439.658 374.963 439.946 374.075 440.522 373.579C441.114 373.067 442.09 372.811 443.45 372.811H447.218V369.475C447.218 369.267 447.114 369.163 446.906 369.163L440.546 369.187V366.715H446.258C447.634 366.699 448.626 366.963 449.234 367.507C449.842 368.035 450.146 368.963 450.146 370.291V381.427H447.53L447.29 379.771C447.162 380.395 446.882 380.867 446.45 381.187C446.034 381.491 445.434 381.643 444.65 381.643H443.114ZM447.218 379.291V374.923H442.85C442.642 374.923 442.538 375.027 442.538 375.235V378.955C442.538 379.179 442.642 379.291 442.85 379.291H447.218ZM460.328 366.523C461.528 366.523 462.408 366.763 462.968 367.243C463.528 367.723 463.808 368.571 463.808 369.787V381.427H460.904V369.211C460.904 368.987 460.8 368.875 460.592 368.875H456.392C456.168 368.875 456.056 368.987 456.056 369.211L456.08 381.427H453.2L453.152 366.739H455.744L455.96 368.227C456.28 367.091 457.168 366.523 458.624 366.523H460.328ZM470.68 381.595C469.224 381.595 468.168 381.315 467.512 380.755C466.872 380.195 466.552 379.251 466.552 377.923V370.027C466.552 368.699 466.832 367.787 467.392 367.291C467.952 366.779 468.912 366.523 470.272 366.523H473.224C474.6 366.523 475.576 366.779 476.152 367.291C476.744 367.787 477.04 368.699 477.04 370.027V375.763H469.48V378.835C469.48 379.043 469.584 379.147 469.792 379.147H476.656V381.595H470.68ZM469.792 368.875C469.584 368.875 469.48 368.987 469.48 369.211V373.651H474.136V369.211C474.136 368.987 474.032 368.875 473.824 368.875H469.792ZM486 381.427V362.395L494.04 362.275C495.528 362.243 496.648 362.579 497.4 363.283C498.152 363.971 498.528 364.995 498.528 366.355V370.243C498.528 371.523 498.152 372.539 497.4 373.291C496.648 374.027 495.528 374.395 494.04 374.395H489.024V381.427H486ZM495.048 364.915H489.024V371.779H495.048C495.304 371.779 495.432 371.651 495.432 371.395V365.299C495.432 365.043 495.304 364.915 495.048 364.915ZM504.851 381.595C503.395 381.595 502.339 381.315 501.683 380.755C501.043 380.195 500.723 379.251 500.723 377.923V370.027C500.723 368.699 501.003 367.787 501.563 367.291C502.123 366.779 503.083 366.523 504.443 366.523H507.395C508.771 366.523 509.747 366.779 510.323 367.291C510.915 367.787 511.211 368.699 511.211 370.027V375.763H503.651V378.835C503.651 379.043 503.755 379.147 503.963 379.147H510.827V381.595H504.851ZM503.963 368.875C503.755 368.875 503.651 368.987 503.651 369.211V373.651H508.307V369.211C508.307 368.987 508.203 368.875 507.995 368.875H503.963ZM520.883 366.523V368.875H517.259C517.035 368.875 516.923 368.987 516.923 369.211L516.947 381.427H514.067L514.019 366.739H516.611L516.827 368.227C517.147 367.091 518.035 366.523 519.491 366.523H520.883ZM529.344 366.523V368.875H525.72C525.496 368.875 525.384 368.987 525.384 369.211L525.408 381.427H522.528L522.48 366.739H525.072L525.288 368.227C525.608 367.091 526.496 366.523 527.952 366.523H529.344ZM538.429 384.571V380.107C538.093 381.131 537.237 381.643 535.861 381.643H534.157C532.957 381.643 532.077 381.411 531.517 380.947C530.957 380.467 530.677 379.619 530.677 378.403V366.739H533.581V378.955C533.581 379.179 533.693 379.291 533.917 379.291H538.429L538.405 366.739H541.309L541.333 383.683C541.333 385.011 541.005 385.955 540.349 386.515C539.709 387.075 538.669 387.355 537.229 387.355H531.157V384.907H538.117C538.325 384.907 538.429 384.795 538.429 384.571ZM546.981 380.851C546.981 381.523 546.821 382.179 546.501 382.819C546.197 383.475 545.765 384.083 545.205 384.643L544.245 383.875C544.533 383.411 544.749 382.955 544.893 382.507C545.053 382.075 545.149 381.699 545.181 381.379H544.197V378.043H546.981V380.851ZM558.285 381.643C557.085 381.643 556.205 381.411 555.645 380.947C555.101 380.467 554.829 379.619 554.829 378.403V376.243C554.829 374.963 555.117 374.075 555.693 373.579C556.285 373.067 557.261 372.811 558.621 372.811H562.389V369.475C562.389 369.267 562.285 369.163 562.077 369.163L555.717 369.187V366.715H561.429C562.805 366.699 563.797 366.963 564.405 367.507C565.013 368.035 565.317 368.963 565.317 370.291V381.427H562.701L562.461 379.771C562.333 380.395 562.053 380.867 561.621 381.187C561.205 381.491 560.605 381.643 559.821 381.643H558.285ZM562.389 379.291V374.923H558.021C557.813 374.923 557.709 375.027 557.709 375.235V378.955C557.709 379.179 557.813 379.291 558.021 379.291H562.389ZM575.499 366.523C576.699 366.523 577.579 366.763 578.139 367.243C578.699 367.723 578.979 368.571 578.979 369.787V381.427H576.075V369.211C576.075 368.987 575.971 368.875 575.763 368.875H571.563C571.339 368.875 571.227 368.987 571.227 369.211L571.251 381.427H568.371L568.323 366.739H570.915L571.131 368.227C571.451 367.091 572.339 366.523 573.795 366.523H575.499ZM592.331 361.219V381.427H589.763L589.475 379.747C589.347 380.371 589.067 380.843 588.635 381.163C588.219 381.483 587.619 381.643 586.835 381.643H585.155C583.955 381.643 583.075 381.411 582.515 380.947C581.971 380.467 581.699 379.619 581.699 378.403V370.075C581.699 368.795 581.987 367.907 582.563 367.411C583.155 366.899 584.131 366.651 585.491 366.667L589.403 366.691V361.219H592.331ZM584.891 379.291H589.091C589.299 379.291 589.403 379.179 589.403 378.955V369.043L584.891 368.995C584.683 368.995 584.579 369.107 584.579 369.331V378.955C584.579 379.179 584.683 379.291 584.891 379.291ZM612.507 362.395H615.123V381.427H613.011L604.227 367.891V381.427H601.611V362.395H603.699L612.507 375.955V362.395ZM622.531 381.595C621.075 381.595 620.019 381.315 619.363 380.755C618.723 380.195 618.403 379.251 618.403 377.923V370.027C618.403 368.699 618.683 367.787 619.243 367.291C619.803 366.779 620.763 366.523 622.123 366.523H625.075C626.451 366.523 627.427 366.779 628.003 367.291C628.595 367.787 628.891 368.699 628.891 370.027V375.763H621.331V378.835C621.331 379.043 621.435 379.147 621.643 379.147H628.507V381.595H622.531ZM621.643 368.875C621.435 368.875 621.331 368.987 621.331 369.211V373.651H625.987V369.211C625.987 368.987 625.883 368.875 625.675 368.875H621.643ZM631.914 381.427V361.219H634.842V381.427H631.914ZM638.547 381.427V361.219H641.475V381.427H638.547ZM664.917 362.395C665.637 362.395 666.141 362.555 666.429 362.875C666.733 363.179 666.885 363.675 666.885 364.363V381.427H663.981V367.099L659.589 375.595H657.813L653.565 367.195V381.427H650.901V362.395H652.533C653.061 362.395 653.445 362.483 653.685 362.659C653.925 362.819 654.149 363.123 654.357 363.571L658.893 372.259L664.005 362.395H664.917ZM670.129 370.171C670.129 368.843 670.449 367.907 671.089 367.363C671.729 366.803 672.777 366.523 674.233 366.523H676.849C678.321 366.523 679.377 366.803 680.017 367.363C680.657 367.907 680.977 368.843 680.977 370.171V377.995C680.977 379.323 680.657 380.267 680.017 380.827C679.377 381.371 678.321 381.643 676.849 381.643H674.233C672.777 381.643 671.729 381.371 671.089 380.827C670.449 380.267 670.129 379.323 670.129 377.995V370.171ZM673.393 368.947C673.169 368.947 673.057 369.059 673.057 369.283V378.883C673.057 379.107 673.169 379.219 673.393 379.219H677.737C677.945 379.219 678.049 379.107 678.049 378.883V369.283C678.049 369.059 677.945 368.947 677.737 368.947H673.393ZM683.676 370.171C683.676 368.843 683.996 367.907 684.636 367.363C685.276 366.803 686.324 366.523 687.78 366.523H690.396C691.868 366.523 692.924 366.803 693.564 367.363C694.204 367.907 694.524 368.843 694.524 370.171V377.995C694.524 379.323 694.204 380.267 693.564 380.827C692.924 381.371 691.868 381.643 690.396 381.643H687.78C686.324 381.643 685.276 381.371 684.636 380.827C683.996 380.267 683.676 379.323 683.676 377.995V370.171ZM686.94 368.947C686.716 368.947 686.604 369.059 686.604 369.283V378.883C686.604 379.107 686.716 379.219 686.94 379.219H691.284C691.492 379.219 691.596 379.107 691.596 378.883V369.283C691.596 369.059 691.492 368.947 691.284 368.947H686.94ZM704.687 366.523C705.887 366.523 706.767 366.763 707.327 367.243C707.887 367.723 708.167 368.571 708.167 369.787V381.427H705.263V369.211C705.263 368.987 705.159 368.875 704.951 368.875H700.751C700.527 368.875 700.415 368.987 700.415 369.211L700.439 381.427H697.559L697.511 366.739H700.103L700.319 368.227C700.639 367.091 701.527 366.523 702.983 366.523H704.687ZM715.039 381.595C713.583 381.595 712.527 381.315 711.871 380.755C711.231 380.195 710.911 379.251 710.911 377.923V370.027C710.911 368.699 711.191 367.787 711.751 367.291C712.311 366.779 713.271 366.523 714.631 366.523H717.583C718.959 366.523 719.935 366.779 720.511 367.291C721.103 367.787 721.399 368.699 721.399 370.027V375.763H713.839V378.835C713.839 379.043 713.943 379.147 714.151 379.147H721.015V381.595H715.039ZM714.151 368.875C713.943 368.875 713.839 368.987 713.839 369.211V373.651H718.495V369.211C718.495 368.987 718.391 368.875 718.183 368.875H714.151ZM731.694 384.571V380.107C731.358 381.131 730.502 381.643 729.126 381.643H727.422C726.222 381.643 725.342 381.411 724.782 380.947C724.222 380.467 723.942 379.619 723.942 378.403V366.739H726.846V378.955C726.846 379.179 726.958 379.291 727.182 379.291H731.694L731.67 366.739H734.574L734.598 383.683C734.598 385.011 734.27 385.955 733.614 386.515C732.974 387.075 731.934 387.355 730.494 387.355H724.422V384.907H731.382C731.59 384.907 731.694 384.795 731.694 384.571Z" fill="black"/>
<path d="M264.98 384.427H306.934V385.627H264.98V384.427ZM306.934 384.427H350.88V385.627H306.934V384.427ZM350.879 384.427H405.636V385.627H350.879V384.427ZM405.629 384.427H419.199V385.627H405.629V384.427Z" fill="black"/>
<path d="M430.168 384.427H478.216V385.627H430.168V384.427ZM478.215 384.427H512.387V385.627H478.215V384.427ZM512.387 384.427H520.859V385.627H512.387V384.427ZM520.848 384.427H529.32V385.627H520.848V384.427ZM529.309 384.427H542.973V385.627H529.309V384.427Z" fill="black"/>
<path d="M599.691 384.427H617.043V385.627H599.691V384.427ZM617.035 384.427H630.067V385.627H617.035V384.427ZM630.066 384.427H722.575V385.627H630.066V384.427ZM722.574 384.427H736.23V385.627H722.574V384.427Z" fill="black"/>
</g>
<a href="https://www.imdb.com/name/nm0209035/?ref_=tt_mv_desc">
<rect fill="black" fill-opacity="0" x="97.9805" y="-0.052" width="154.208" height="37.104"/>
</a>
<a href="https://www.imdb.com/name/nm0675110/?ref_=tt_mv_desc">
<rect fill="black" fill-opacity="0" x="263.168" y="-0.052" width="112.797" height="37.104"/>
</a>
<a href="https://www.imdb.com/name/nm2273340/?ref_=tt_mv_desc">
<rect fill="black" fill-opacity="0" x="432.691" y="-0.052" width="136.539" height="37.104"/>
</a>
<line x1="28.9863" y1="270.427" x2="927.014" y2="270.427" stroke="black" stroke-width="3"/>
<path d="M118.5 130.927C118.5 149.641 102.894 164.927 83.5 164.927C64.1059 164.927 48.5 149.641 48.5 130.927C48.5 112.213 64.1059 96.927 83.5 96.927C102.894 96.927 118.5 112.213 118.5 130.927Z" stroke="#960D0D" stroke-width="5"/>
</g>
<defs>
<filter id="filter0_d_17_420" x="189.85" y="361.219" width="550.38" height="34.136" filterUnits="userSpaceOnUse" color-interpolation-filters="sRGB">
<feFlood flood-opacity="0" result="BackgroundImageFix"/>
<feColorMatrix in="SourceAlpha" type="matrix" values="0 0 0 0 0 0 0 0 0 0 0 0 0 0 0 0 0 0 127 0" result="hardAlpha"/>
<feOffset dy="4"/>
<feGaussianBlur stdDeviation="2"/>
<feComposite in2="hardAlpha" operator="out"/>
<feColorMatrix type="matrix" values="0 0 0 0 0 0 0 0 0 0 0 0 0 0 0 0 0 0 0.25 0"/>
<feBlend mode="normal" in2="BackgroundImageFix" result="effect1_dropShadow_17_420"/>
<feBlend mode="normal" in="SourceGraphic" in2="effect1_dropShadow_17_420" result="shape"/>
</filter>
<clipPath id="clip0_17_420">
<rect width="913" height="398" fill="white"/>
</clipPath>
</defs>
</svg>
